<svg width="120" height="42" viewBox="0 0 120 42" fill="none" xmlns="http://www.w3.org/2000/svg">
<rect width="120" height="42" rx="4" fill="black"/>
<path d="M25.8279 30.6078C26.1408 30.4732 26.3599 30.1621 26.3599 29.8V27.424C26.3599 27.3373 26.3669 27.2471 26.3779 27.1556C26.3718 27.1574 26.366 27.1587 26.3599 27.16C26.3599 27.16 25.0399 27.16 24.7759 27.16C24.1159 27.16 23.5439 26.896 23.2799 26.368C22.9719 25.796 22.8399 24.828 22.0479 24.3C21.9159 24.212 22.0039 24.08 22.2679 24.08C22.5319 24.124 23.1039 24.476 23.4559 24.96C23.8519 25.444 24.2479 25.84 24.9519 25.84C26.0462 25.84 26.6327 25.785 26.9856 25.5958C27.3965 24.9846 27.9654 24.52 28.5599 24.52V24.509C26.066 24.4289 24.4727 23.6 23.7309 22.32C22.1183 22.3385 20.7142 22.4982 19.913 22.6311C19.8875 22.4872 19.8655 22.3424 19.8466 22.1968C20.6372 22.0666 21.9775 21.9121 23.5184 21.8826C23.4691 21.7612 23.4264 21.6367 23.3903 21.5091C21.8455 21.4308 20.5123 21.4919 19.788 21.5518C19.7792 21.4057 19.7674 21.26 19.7656 21.1122C20.4912 21.0528 21.7883 20.9934 23.2935 21.0634C23.2588 20.8434 23.2363 20.6185 23.2363 20.3844C23.2363 19.6364 23.5003 18.8444 23.9843 18.1844C23.7643 17.4364 23.4563 15.8524 24.0723 15.2804C25.2603 15.2804 26.0963 15.8524 26.4923 16.2044C27.2399 15.896 28.0759 15.72 28.9999 15.72C29.9239 15.72 30.7599 15.896 31.4639 16.204C31.8599 15.852 32.6959 15.28 33.8839 15.28C34.5439 15.896 34.1919 17.48 33.9719 18.184C34.4559 18.844 34.7199 19.592 34.6759 20.384C34.6759 20.597 34.6561 20.8024 34.6275 21.004C36.167 20.9283 37.4994 20.989 38.2372 21.0488C38.2364 21.1971 38.2227 21.3419 38.2148 21.4884C37.4796 21.4277 36.1138 21.3652 34.5368 21.4492C34.4977 21.5971 34.4502 21.741 34.3938 21.8804C35.9541 21.9007 37.3264 22.0516 38.155 22.1836C38.136 22.3297 38.114 22.4744 38.0885 22.6179C37.2472 22.4832 35.8133 22.3257 34.1818 22.3178C33.4492 23.5841 31.885 24.41 29.4399 24.5064V24.52C30.5839 24.52 31.6399 26.236 31.6399 27.424V29.8C31.6399 30.1621 31.859 30.4732 32.1718 30.6078C36.2027 29.2738 39.1199 25.4722 39.1199 21C39.1199 15.4199 34.5804 10.88 28.9999 10.88C23.4194 10.88 18.8799 15.4199 18.8799 21C18.8799 25.4722 21.7971 29.2738 25.8279 30.6078Z" fill="white"/>
<path d="M62.6882 19.4922H59.8885C59.8374 19.13 59.733 18.8082 59.5753 18.527C59.4176 18.2415 59.2152 17.9986 58.968 17.7983C58.7209 17.598 58.4354 17.4446 58.1115 17.3381C57.7919 17.2315 57.4446 17.1783 57.0696 17.1783C56.392 17.1783 55.8018 17.3466 55.299 17.6832C54.7962 18.0156 54.4063 18.5014 54.1293 19.1406C53.8523 19.7756 53.7138 20.5469 53.7138 21.4545C53.7138 22.3878 53.8523 23.1719 54.1293 23.8068C54.4105 24.4418 54.8026 24.9212 55.3054 25.245C55.8082 25.5689 56.3899 25.7308 57.0504 25.7308C57.4212 25.7308 57.7642 25.6818 58.0795 25.5838C58.3991 25.4858 58.6825 25.343 58.9297 25.1555C59.1768 24.9638 59.3814 24.7315 59.5433 24.4588C59.7095 24.1861 59.8246 23.875 59.8885 23.5256L62.6882 23.5384C62.6158 24.1392 62.4347 24.7188 62.1449 25.277C61.8594 25.831 61.4737 26.3274 60.9879 26.7663C60.5064 27.201 59.9311 27.5462 59.2621 27.8018C58.5973 28.0533 57.8452 28.179 57.0057 28.179C55.8381 28.179 54.794 27.9148 53.8736 27.3864C52.9574 26.858 52.233 26.093 51.7003 25.0916C51.1719 24.0902 50.9077 22.8778 50.9077 21.4545C50.9077 20.027 51.1761 18.8125 51.7131 17.8111C52.25 16.8097 52.9787 16.0469 53.8991 15.5227C54.8196 14.9943 55.8551 14.7301 57.0057 14.7301C57.7642 14.7301 58.4673 14.8366 59.1151 15.0497C59.767 15.2628 60.3445 15.5739 60.8473 15.983C61.3501 16.3878 61.7592 16.8842 62.0746 17.4723C62.3942 18.0604 62.5987 18.7337 62.6882 19.4922ZM76.7028 21.4545C76.7028 22.8821 76.4322 24.0966 75.891 25.098C75.354 26.0994 74.6211 26.8643 73.6921 27.3928C72.7674 27.9169 71.7276 28.179 70.5728 28.179C69.4094 28.179 68.3654 27.9148 67.4407 27.3864C66.516 26.858 65.7852 26.093 65.2482 25.0916C64.7113 24.0902 64.4428 22.8778 64.4428 21.4545C64.4428 20.027 64.7113 18.8125 65.2482 17.8111C65.7852 16.8097 66.516 16.0469 67.4407 15.5227C68.3654 14.9943 69.4094 14.7301 70.5728 14.7301C71.7276 14.7301 72.7674 14.9943 73.6921 15.5227C74.6211 16.0469 75.354 16.8097 75.891 17.8111C76.4322 18.8125 76.7028 20.027 76.7028 21.4545ZM73.8967 21.4545C73.8967 20.5298 73.7582 19.75 73.4812 19.1151C73.2085 18.4801 72.8228 17.9986 72.3242 17.6705C71.8256 17.3423 71.2418 17.1783 70.5728 17.1783C69.9038 17.1783 69.32 17.3423 68.8214 17.6705C68.3228 17.9986 67.935 18.4801 67.658 19.1151C67.3853 19.75 67.2489 20.5298 67.2489 21.4545C67.2489 22.3793 67.3853 23.1591 67.658 23.794C67.935 24.429 68.3228 24.9105 68.8214 25.2386C69.32 25.5668 69.9038 25.7308 70.5728 25.7308C71.2418 25.7308 71.8256 25.5668 72.3242 25.2386C72.8228 24.9105 73.2085 24.429 73.4812 23.794C73.7582 23.1591 73.8967 22.3793 73.8967 21.4545ZM83.3936 28H78.753V14.9091H83.432C84.7488 14.9091 85.8823 15.1712 86.8326 15.6953C87.7828 16.2152 88.5137 16.9631 89.025 17.9389C89.5407 18.9148 89.7985 20.0824 89.7985 21.4418C89.7985 22.8054 89.5407 23.9773 89.025 24.9574C88.5137 25.9375 87.7786 26.6896 86.8198 27.2138C85.8652 27.7379 84.7232 28 83.3936 28ZM81.5208 25.6286H83.2786C84.0968 25.6286 84.785 25.4837 85.3432 25.1939C85.9057 24.8999 86.3276 24.446 86.6088 23.8324C86.8944 23.2145 87.0371 22.4176 87.0371 21.4418C87.0371 20.4744 86.8944 19.6839 86.6088 19.0703C86.3276 18.4567 85.9078 18.005 85.3496 17.7152C84.7914 17.4254 84.1032 17.2805 83.285 17.2805H81.5208V25.6286ZM91.8487 28V14.9091H100.67V17.1911H94.6165V20.3104H100.216V22.5923H94.6165V25.718H100.695V28H91.8487Z" fill="white"/>
</svg>
