<svg width="110" height="36" viewBox="0 0 110 36" fill="none" xmlns="http://www.w3.org/2000/svg">
<rect width="110" height="36" rx="4" fill="black"/>
<path d="M23.1162 26.7344C23.4006 26.612 23.5998 26.3292 23.5998 26V23.84C23.5998 23.7612 23.6062 23.6792 23.6162 23.596C23.6106 23.5976 23.6054 23.5988 23.5998 23.6C23.5998 23.6 22.3998 23.6 22.1598 23.6C21.5598 23.6 21.0398 23.36 20.7998 22.88C20.5198 22.36 20.3998 21.48 19.6798 21C19.5598 20.92 19.6398 20.8 19.8798 20.8C20.1198 20.84 20.6398 21.16 20.9598 21.6C21.3198 22.04 21.6798 22.4 22.3198 22.4C23.3146 22.4 23.8478 22.35 24.1686 22.178C24.5422 21.6224 25.0594 21.2 25.5998 21.2V21.19C23.3326 21.1172 21.8842 20.3636 21.2098 19.2C19.7438 19.2168 18.4674 19.362 17.739 19.4828C17.7158 19.352 17.6958 19.2204 17.6786 19.088C18.3974 18.9696 19.6158 18.8292 21.0166 18.8024C20.9718 18.692 20.933 18.5788 20.9002 18.4628C19.4958 18.3916 18.2838 18.4472 17.6254 18.5016C17.6174 18.3688 17.6066 18.2364 17.605 18.102C18.2646 18.048 19.4438 17.994 20.8122 18.0576C20.7806 17.8576 20.7602 17.6532 20.7602 17.4404C20.7602 16.7604 21.0002 16.0404 21.4402 15.4404C21.2402 14.7604 20.9602 13.3204 21.5202 12.8004C22.6002 12.8004 23.3602 13.3204 23.7202 13.6404C24.3998 13.36 25.1598 13.2 25.9998 13.2C26.8398 13.2 27.5998 13.36 28.2398 13.64C28.5998 13.32 29.3598 12.8 30.4398 12.8C31.0398 13.36 30.7198 14.8 30.5198 15.44C30.9598 16.04 31.1998 16.72 31.1598 17.44C31.1598 17.6336 31.1418 17.8204 31.1158 18.0036C32.5154 17.9348 33.7266 17.99 34.3974 18.0444C34.3966 18.1792 34.3842 18.3108 34.377 18.444C33.7086 18.3888 32.467 18.332 31.0334 18.4084C30.9978 18.5428 30.9546 18.6736 30.9034 18.8004C32.3218 18.8188 33.5694 18.956 34.3226 19.076C34.3054 19.2088 34.2854 19.3404 34.2622 19.4708C33.4974 19.3484 32.1938 19.2052 30.7106 19.198C30.0446 20.3492 28.6226 21.1 26.3998 21.1876V21.2C27.4398 21.2 28.3998 22.76 28.3998 23.84V26C28.3998 26.3292 28.599 26.612 28.8834 26.7344C32.5478 25.5216 35.1998 22.0656 35.1998 18C35.1998 12.9272 31.073 8.80005 25.9998 8.80005C20.9266 8.80005 16.7998 12.9272 16.7998 18C16.7998 22.0656 19.4518 25.5216 23.1162 26.7344Z" fill="white"/>
<path d="M59.2784 15.9375H56.7898C56.7443 15.6155 56.6515 15.3295 56.5114 15.0795C56.3712 14.8258 56.1913 14.6098 55.9716 14.4318C55.7519 14.2538 55.4981 14.1174 55.2102 14.0227C54.9261 13.928 54.6174 13.8807 54.2841 13.8807C53.6818 13.8807 53.1572 14.0303 52.7102 14.3295C52.2633 14.625 51.9167 15.0568 51.6705 15.625C51.4242 16.1894 51.3011 16.875 51.3011 17.6818C51.3011 18.5114 51.4242 19.2083 51.6705 19.7727C51.9205 20.3371 52.2689 20.7633 52.7159 21.0511C53.1629 21.339 53.6799 21.483 54.267 21.483C54.5966 21.483 54.9015 21.4394 55.1818 21.3523C55.4659 21.2652 55.7178 21.1383 55.9375 20.9716C56.1572 20.8011 56.339 20.5947 56.483 20.3523C56.6307 20.1098 56.733 19.8333 56.7898 19.5227L59.2784 19.5341C59.214 20.0682 59.053 20.5833 58.7955 21.0795C58.5417 21.572 58.1989 22.0133 57.767 22.4034C57.339 22.7898 56.8277 23.0966 56.233 23.3239C55.642 23.5473 54.9735 23.6591 54.2273 23.6591C53.1894 23.6591 52.2614 23.4242 51.4432 22.9545C50.6288 22.4848 49.9848 21.8049 49.5114 20.9148C49.0417 20.0246 48.8068 18.947 48.8068 17.6818C48.8068 16.4129 49.0455 15.3333 49.5227 14.4432C50 13.553 50.6477 12.875 51.4659 12.4091C52.2841 11.9394 53.2045 11.7045 54.2273 11.7045C54.9015 11.7045 55.5265 11.7992 56.1023 11.9886C56.6818 12.178 57.1951 12.4545 57.642 12.8182C58.089 13.178 58.4527 13.6193 58.733 14.142C59.017 14.6648 59.1989 15.2633 59.2784 15.9375ZM71.7358 17.6818C71.7358 18.9508 71.4953 20.0303 71.0142 20.9205C70.5369 21.8106 69.8854 22.4905 69.0597 22.9602C68.2377 23.4261 67.3134 23.6591 66.2869 23.6591C65.2528 23.6591 64.3248 23.4242 63.5028 22.9545C62.6809 22.4848 62.0313 21.8049 61.554 20.9148C61.0767 20.0246 60.8381 18.947 60.8381 17.6818C60.8381 16.4129 61.0767 15.3333 61.554 14.4432C62.0313 13.553 62.6809 12.875 63.5028 12.4091C64.3248 11.9394 65.2528 11.7045 66.2869 11.7045C67.3134 11.7045 68.2377 11.9394 69.0597 12.4091C69.8854 12.875 70.5369 13.553 71.0142 14.4432C71.4953 15.3333 71.7358 16.4129 71.7358 17.6818ZM69.2415 17.6818C69.2415 16.8598 69.1184 16.1667 68.8722 15.6023C68.6297 15.0379 68.2869 14.6098 67.8438 14.3182C67.4006 14.0265 66.8816 13.8807 66.2869 13.8807C65.6922 13.8807 65.1733 14.0265 64.7301 14.3182C64.2869 14.6098 63.9422 15.0379 63.696 15.6023C63.4536 16.1667 63.3324 16.8598 63.3324 17.6818C63.3324 18.5038 63.4536 19.197 63.696 19.7614C63.9422 20.3258 64.2869 20.7538 64.7301 21.0455C65.1733 21.3371 65.6922 21.483 66.2869 21.483C66.8816 21.483 67.4006 21.3371 67.8438 21.0455C68.2869 20.7538 68.6297 20.3258 68.8722 19.7614C69.1184 19.197 69.2415 18.5038 69.2415 17.6818ZM77.6832 23.5H73.5582V11.8636H77.7173C78.8878 11.8636 79.8954 12.0966 80.7401 12.5625C81.5848 13.0246 82.2344 13.6894 82.6889 14.5568C83.1473 15.4242 83.3764 16.4621 83.3764 17.6705C83.3764 18.8826 83.1473 19.9242 82.6889 20.7955C82.2344 21.6667 81.581 22.3352 80.7287 22.8011C79.8802 23.267 78.8651 23.5 77.6832 23.5ZM76.0185 21.392H77.581C78.3082 21.392 78.92 21.2633 79.4162 21.0057C79.9162 20.7443 80.2912 20.3409 80.5412 19.7955C80.795 19.2462 80.9219 18.5379 80.9219 17.6705C80.9219 16.8106 80.795 16.108 80.5412 15.5625C80.2912 15.017 79.9181 14.6155 79.4219 14.358C78.9257 14.1004 78.3139 13.9716 77.5866 13.9716H76.0185V21.392ZM85.1989 23.5V11.8636H93.0398V13.892H87.6591V16.6648H92.6364V18.6932H87.6591V21.4716H93.0625V23.5H85.1989Z" fill="white"/>
</svg>
