<svg width="110" height="38" viewBox="0 0 110 38" fill="none" xmlns="http://www.w3.org/2000/svg">
<rect width="110" height="38" rx="4" fill="black"/>
<path d="M23.8279 28.6078C24.1408 28.4732 24.3599 28.1621 24.3599 27.8V25.424C24.3599 25.3373 24.3669 25.2471 24.3779 25.1556C24.3718 25.1574 24.366 25.1587 24.3599 25.16C24.3599 25.16 23.0399 25.16 22.7759 25.16C22.1159 25.16 21.5439 24.896 21.2799 24.368C20.9719 23.796 20.8399 22.828 20.0479 22.3C19.9159 22.212 20.0039 22.08 20.2679 22.08C20.5319 22.124 21.1039 22.476 21.4559 22.96C21.8519 23.444 22.2479 23.84 22.9519 23.84C24.0462 23.84 24.6327 23.785 24.9856 23.5958C25.3965 22.9846 25.9654 22.52 26.5599 22.52V22.509C24.066 22.4289 22.4727 21.6 21.7309 20.32C20.1183 20.3385 18.7142 20.4982 17.913 20.6311C17.8875 20.4872 17.8655 20.3424 17.8466 20.1968C18.6372 20.0666 19.9775 19.9121 21.5184 19.8826C21.4691 19.7612 21.4264 19.6367 21.3903 19.5091C19.8455 19.4308 18.5123 19.4919 17.788 19.5518C17.7792 19.4057 17.7674 19.26 17.7656 19.1122C18.4912 19.0528 19.7883 18.9934 21.2935 19.0634C21.2588 18.8434 21.2363 18.6185 21.2363 18.3844C21.2363 17.6364 21.5003 16.8444 21.9843 16.1844C21.7643 15.4364 21.4563 13.8524 22.0723 13.2804C23.2603 13.2804 24.0963 13.8524 24.4923 14.2044C25.2399 13.896 26.0759 13.72 26.9999 13.72C27.9239 13.72 28.7599 13.896 29.4639 14.204C29.8599 13.852 30.6959 13.28 31.8839 13.28C32.5439 13.896 32.1919 15.48 31.9719 16.184C32.4559 16.844 32.7199 17.592 32.6759 18.384C32.6759 18.597 32.6561 18.8024 32.6275 19.004C34.167 18.9283 35.4994 18.989 36.2372 19.0488C36.2364 19.1971 36.2227 19.3419 36.2148 19.4884C35.4796 19.4277 34.1138 19.3652 32.5368 19.4492C32.4977 19.5971 32.4502 19.741 32.3938 19.8804C33.9541 19.9007 35.3264 20.0516 36.155 20.1836C36.136 20.3297 36.114 20.4744 36.0885 20.6179C35.2472 20.4832 33.8133 20.3257 32.1818 20.3178C31.4492 21.5841 29.885 22.41 27.4399 22.5064V22.52C28.5839 22.52 29.6399 24.236 29.6399 25.424V27.8C29.6399 28.1621 29.859 28.4732 30.1718 28.6078C34.2027 27.2738 37.1199 23.4722 37.1199 19C37.1199 13.4199 32.5804 8.88 26.9999 8.88C21.4194 8.88 16.8799 13.4199 16.8799 19C16.8799 23.4722 19.7971 27.2738 23.8279 28.6078Z" fill="white"/>
<path d="M59.2784 16.9375H56.7898C56.7443 16.6155 56.6515 16.3295 56.5114 16.0795C56.3712 15.8258 56.1913 15.6098 55.9716 15.4318C55.7519 15.2538 55.4981 15.1174 55.2102 15.0227C54.9261 14.928 54.6174 14.8807 54.2841 14.8807C53.6818 14.8807 53.1572 15.0303 52.7102 15.3295C52.2633 15.625 51.9167 16.0568 51.6705 16.625C51.4242 17.1894 51.3011 17.875 51.3011 18.6818C51.3011 19.5114 51.4242 20.2083 51.6705 20.7727C51.9205 21.3371 52.2689 21.7633 52.7159 22.0511C53.1629 22.339 53.6799 22.483 54.267 22.483C54.5966 22.483 54.9015 22.4394 55.1818 22.3523C55.4659 22.2652 55.7178 22.1383 55.9375 21.9716C56.1572 21.8011 56.339 21.5947 56.483 21.3523C56.6307 21.1098 56.733 20.8333 56.7898 20.5227L59.2784 20.5341C59.214 21.0682 59.053 21.5833 58.7955 22.0795C58.5417 22.572 58.1989 23.0133 57.767 23.4034C57.339 23.7898 56.8277 24.0966 56.233 24.3239C55.642 24.5473 54.9735 24.6591 54.2273 24.6591C53.1894 24.6591 52.2614 24.4242 51.4432 23.9545C50.6288 23.4848 49.9848 22.8049 49.5114 21.9148C49.0417 21.0246 48.8068 19.947 48.8068 18.6818C48.8068 17.4129 49.0455 16.3333 49.5227 15.4432C50 14.553 50.6477 13.875 51.4659 13.4091C52.2841 12.9394 53.2045 12.7045 54.2273 12.7045C54.9015 12.7045 55.5265 12.7992 56.1023 12.9886C56.6818 13.178 57.1951 13.4545 57.642 13.8182C58.089 14.178 58.4527 14.6193 58.733 15.142C59.017 15.6648 59.1989 16.2633 59.2784 16.9375ZM71.7358 18.6818C71.7358 19.9508 71.4953 21.0303 71.0142 21.9205C70.5369 22.8106 69.8854 23.4905 69.0597 23.9602C68.2377 24.4261 67.3134 24.6591 66.2869 24.6591C65.2528 24.6591 64.3248 24.4242 63.5028 23.9545C62.6809 23.4848 62.0313 22.8049 61.554 21.9148C61.0767 21.0246 60.8381 19.947 60.8381 18.6818C60.8381 17.4129 61.0767 16.3333 61.554 15.4432C62.0313 14.553 62.6809 13.875 63.5028 13.4091C64.3248 12.9394 65.2528 12.7045 66.2869 12.7045C67.3134 12.7045 68.2377 12.9394 69.0597 13.4091C69.8854 13.875 70.5369 14.553 71.0142 15.4432C71.4953 16.3333 71.7358 17.4129 71.7358 18.6818ZM69.2415 18.6818C69.2415 17.8598 69.1184 17.1667 68.8722 16.6023C68.6297 16.0379 68.2869 15.6098 67.8438 15.3182C67.4006 15.0265 66.8816 14.8807 66.2869 14.8807C65.6922 14.8807 65.1733 15.0265 64.7301 15.3182C64.2869 15.6098 63.9422 16.0379 63.696 16.6023C63.4536 17.1667 63.3324 17.8598 63.3324 18.6818C63.3324 19.5038 63.4536 20.197 63.696 20.7614C63.9422 21.3258 64.2869 21.7538 64.7301 22.0455C65.1733 22.3371 65.6922 22.483 66.2869 22.483C66.8816 22.483 67.4006 22.3371 67.8438 22.0455C68.2869 21.7538 68.6297 21.3258 68.8722 20.7614C69.1184 20.197 69.2415 19.5038 69.2415 18.6818ZM77.6832 24.5H73.5582V12.8636H77.7173C78.8878 12.8636 79.8954 13.0966 80.7401 13.5625C81.5848 14.0246 82.2344 14.6894 82.6889 15.5568C83.1473 16.4242 83.3764 17.4621 83.3764 18.6705C83.3764 19.8826 83.1473 20.9242 82.6889 21.7955C82.2344 22.6667 81.581 23.3352 80.7287 23.8011C79.8802 24.267 78.8651 24.5 77.6832 24.5ZM76.0185 22.392H77.581C78.3082 22.392 78.92 22.2633 79.4162 22.0057C79.9162 21.7443 80.2912 21.3409 80.5412 20.7955C80.795 20.2462 80.9219 19.5379 80.9219 18.6705C80.9219 17.8106 80.795 17.108 80.5412 16.5625C80.2912 16.017 79.9181 15.6155 79.4219 15.358C78.9257 15.1004 78.3139 14.9716 77.5866 14.9716H76.0185V22.392ZM85.1989 24.5V12.8636H93.0398V14.892H87.6591V17.6648H92.6364V19.6932H87.6591V22.4716H93.0625V24.5H85.1989Z" fill="white"/>
</svg>
