<svg width="112" height="40" viewBox="0 0 112 40" fill="none" xmlns="http://www.w3.org/2000/svg">
<rect width="112" height="40" rx="4" fill="black"/>
<path d="M25.1162 28.7344C25.4006 28.612 25.5998 28.3292 25.5998 28V25.84C25.5998 25.7612 25.6062 25.6792 25.6162 25.596C25.6106 25.5976 25.6054 25.5988 25.5998 25.6C25.5998 25.6 24.3998 25.6 24.1598 25.6C23.5598 25.6 23.0398 25.36 22.7998 24.88C22.5198 24.36 22.3998 23.48 21.6798 23C21.5598 22.92 21.6398 22.8 21.8798 22.8C22.1198 22.84 22.6398 23.16 22.9598 23.6C23.3198 24.04 23.6798 24.4 24.3198 24.4C25.3146 24.4 25.8478 24.35 26.1686 24.178C26.5422 23.6224 27.0594 23.2 27.5998 23.2V23.19C25.3326 23.1172 23.8842 22.3636 23.2098 21.2C21.7438 21.2168 20.4674 21.362 19.739 21.4828C19.7158 21.352 19.6958 21.2204 19.6786 21.088C20.3974 20.9696 21.6158 20.8292 23.0166 20.8024C22.9718 20.692 22.933 20.5788 22.9002 20.4628C21.4958 20.3916 20.2838 20.4472 19.6254 20.5016C19.6174 20.3688 19.6066 20.2364 19.605 20.102C20.2646 20.048 21.4438 19.994 22.8122 20.0576C22.7806 19.8576 22.7602 19.6532 22.7602 19.4404C22.7602 18.7604 23.0002 18.0404 23.4402 17.4404C23.2402 16.7604 22.9602 15.3204 23.5202 14.8004C24.6002 14.8004 25.3602 15.3204 25.7202 15.6404C26.3998 15.36 27.1598 15.2 27.9998 15.2C28.8398 15.2 29.5998 15.36 30.2398 15.64C30.5998 15.32 31.3598 14.8 32.4398 14.8C33.0398 15.36 32.7198 16.8 32.5198 17.44C32.9598 18.04 33.1998 18.72 33.1598 19.44C33.1598 19.6336 33.1418 19.8204 33.1158 20.0036C34.5154 19.9348 35.7266 19.99 36.3974 20.0444C36.3966 20.1792 36.3842 20.3108 36.377 20.444C35.7086 20.3888 34.467 20.332 33.0334 20.4084C32.9978 20.5428 32.9546 20.6736 32.9034 20.8004C34.3218 20.8188 35.5694 20.956 36.3226 21.076C36.3054 21.2088 36.2854 21.3404 36.2622 21.4708C35.4974 21.3484 34.1938 21.2052 32.7106 21.198C32.0446 22.3492 30.6226 23.1 28.3998 23.1876V23.2C29.4398 23.2 30.3998 24.76 30.3998 25.84V28C30.3998 28.3292 30.599 28.612 30.8834 28.7344C34.5478 27.5216 37.1998 24.0656 37.1998 20C37.1998 14.9272 33.073 10.8 27.9998 10.8C22.9266 10.8 18.7998 14.9272 18.7998 20C18.7998 24.0656 21.4518 27.5216 25.1162 28.7344Z" fill="white"/>
<path d="M59.2784 17.9375H56.7898C56.7443 17.6155 56.6515 17.3295 56.5114 17.0795C56.3712 16.8258 56.1913 16.6098 55.9716 16.4318C55.7519 16.2538 55.4981 16.1174 55.2102 16.0227C54.9261 15.928 54.6174 15.8807 54.2841 15.8807C53.6818 15.8807 53.1572 16.0303 52.7102 16.3295C52.2633 16.625 51.9167 17.0568 51.6705 17.625C51.4242 18.1894 51.3011 18.875 51.3011 19.6818C51.3011 20.5114 51.4242 21.2083 51.6705 21.7727C51.9205 22.3371 52.2689 22.7633 52.7159 23.0511C53.1629 23.339 53.6799 23.483 54.267 23.483C54.5966 23.483 54.9015 23.4394 55.1818 23.3523C55.4659 23.2652 55.7178 23.1383 55.9375 22.9716C56.1572 22.8011 56.339 22.5947 56.483 22.3523C56.6307 22.1098 56.733 21.8333 56.7898 21.5227L59.2784 21.5341C59.214 22.0682 59.053 22.5833 58.7955 23.0795C58.5417 23.572 58.1989 24.0133 57.767 24.4034C57.339 24.7898 56.8277 25.0966 56.233 25.3239C55.642 25.5473 54.9735 25.6591 54.2273 25.6591C53.1894 25.6591 52.2614 25.4242 51.4432 24.9545C50.6288 24.4848 49.9848 23.8049 49.5114 22.9148C49.0417 22.0246 48.8068 20.947 48.8068 19.6818C48.8068 18.4129 49.0455 17.3333 49.5227 16.4432C50 15.553 50.6477 14.875 51.4659 14.4091C52.2841 13.9394 53.2045 13.7045 54.2273 13.7045C54.9015 13.7045 55.5265 13.7992 56.1023 13.9886C56.6818 14.178 57.1951 14.4545 57.642 14.8182C58.089 15.178 58.4527 15.6193 58.733 16.142C59.017 16.6648 59.1989 17.2633 59.2784 17.9375ZM71.7358 19.6818C71.7358 20.9508 71.4953 22.0303 71.0142 22.9205C70.5369 23.8106 69.8854 24.4905 69.0597 24.9602C68.2377 25.4261 67.3134 25.6591 66.2869 25.6591C65.2528 25.6591 64.3248 25.4242 63.5028 24.9545C62.6809 24.4848 62.0313 23.8049 61.554 22.9148C61.0767 22.0246 60.8381 20.947 60.8381 19.6818C60.8381 18.4129 61.0767 17.3333 61.554 16.4432C62.0313 15.553 62.6809 14.875 63.5028 14.4091C64.3248 13.9394 65.2528 13.7045 66.2869 13.7045C67.3134 13.7045 68.2377 13.9394 69.0597 14.4091C69.8854 14.875 70.5369 15.553 71.0142 16.4432C71.4953 17.3333 71.7358 18.4129 71.7358 19.6818ZM69.2415 19.6818C69.2415 18.8598 69.1184 18.1667 68.8722 17.6023C68.6297 17.0379 68.2869 16.6098 67.8438 16.3182C67.4006 16.0265 66.8816 15.8807 66.2869 15.8807C65.6922 15.8807 65.1733 16.0265 64.7301 16.3182C64.2869 16.6098 63.9422 17.0379 63.696 17.6023C63.4536 18.1667 63.3324 18.8598 63.3324 19.6818C63.3324 20.5038 63.4536 21.197 63.696 21.7614C63.9422 22.3258 64.2869 22.7538 64.7301 23.0455C65.1733 23.3371 65.6922 23.483 66.2869 23.483C66.8816 23.483 67.4006 23.3371 67.8438 23.0455C68.2869 22.7538 68.6297 22.3258 68.8722 21.7614C69.1184 21.197 69.2415 20.5038 69.2415 19.6818ZM77.6832 25.5H73.5582V13.8636H77.7173C78.8878 13.8636 79.8954 14.0966 80.7401 14.5625C81.5848 15.0246 82.2344 15.6894 82.6889 16.5568C83.1473 17.4242 83.3764 18.4621 83.3764 19.6705C83.3764 20.8826 83.1473 21.9242 82.6889 22.7955C82.2344 23.6667 81.581 24.3352 80.7287 24.8011C79.8802 25.267 78.8651 25.5 77.6832 25.5ZM76.0185 23.392H77.581C78.3082 23.392 78.92 23.2633 79.4162 23.0057C79.9162 22.7443 80.2912 22.3409 80.5412 21.7955C80.795 21.2462 80.9219 20.5379 80.9219 19.6705C80.9219 18.8106 80.795 18.108 80.5412 17.5625C80.2912 17.017 79.9181 16.6155 79.4219 16.358C78.9257 16.1004 78.3139 15.9716 77.5866 15.9716H76.0185V23.392ZM85.1989 25.5V13.8636H93.0398V15.892H87.6591V18.6648H92.6364V20.6932H87.6591V23.4716H93.0625V25.5H85.1989Z" fill="white"/>
</svg>
