<svg width="98" height="36" viewBox="0 0 98 36" fill="none" xmlns="http://www.w3.org/2000/svg">
<rect width="98" height="36" rx="4" fill="black"/>
<path d="M19.1162 26.7344C19.4006 26.612 19.5998 26.3292 19.5998 26V23.84C19.5998 23.7612 19.6062 23.6792 19.6162 23.596C19.6106 23.5976 19.6054 23.5988 19.5998 23.6C19.5998 23.6 18.3998 23.6 18.1598 23.6C17.5598 23.6 17.0398 23.36 16.7998 22.88C16.5198 22.36 16.3998 21.48 15.6798 21C15.5598 20.92 15.6398 20.8 15.8798 20.8C16.1198 20.84 16.6398 21.16 16.9598 21.6C17.3198 22.04 17.6798 22.4 18.3198 22.4C19.3146 22.4 19.8478 22.35 20.1686 22.178C20.5422 21.6224 21.0594 21.2 21.5998 21.2V21.19C19.3326 21.1172 17.8842 20.3636 17.2098 19.2C15.7438 19.2168 14.4674 19.362 13.739 19.4828C13.7158 19.352 13.6958 19.2204 13.6786 19.088C14.3974 18.9696 15.6158 18.8292 17.0166 18.8024C16.9718 18.692 16.933 18.5788 16.9002 18.4628C15.4958 18.3916 14.2838 18.4472 13.6254 18.5016C13.6174 18.3688 13.6066 18.2364 13.605 18.102C14.2646 18.048 15.4438 17.994 16.8122 18.0576C16.7806 17.8576 16.7602 17.6532 16.7602 17.4404C16.7602 16.7604 17.0002 16.0404 17.4402 15.4404C17.2402 14.7604 16.9602 13.3204 17.5202 12.8004C18.6002 12.8004 19.3602 13.3204 19.7202 13.6404C20.3998 13.36 21.1598 13.2 21.9998 13.2C22.8398 13.2 23.5998 13.36 24.2398 13.64C24.5998 13.32 25.3598 12.8 26.4398 12.8C27.0398 13.36 26.7198 14.8 26.5198 15.44C26.9598 16.04 27.1998 16.72 27.1598 17.44C27.1598 17.6336 27.1418 17.8204 27.1158 18.0036C28.5154 17.9348 29.7266 17.99 30.3974 18.0444C30.3966 18.1792 30.3842 18.3108 30.377 18.444C29.7086 18.3888 28.467 18.332 27.0334 18.4084C26.9978 18.5428 26.9546 18.6736 26.9034 18.8004C28.3218 18.8188 29.5694 18.956 30.3226 19.076C30.3054 19.2088 30.2854 19.3404 30.2622 19.4708C29.4974 19.3484 28.1938 19.2052 26.7106 19.198C26.0446 20.3492 24.6226 21.1 22.3998 21.1876V21.2C23.4398 21.2 24.3998 22.76 24.3998 23.84V26C24.3998 26.3292 24.599 26.612 24.8834 26.7344C28.5478 25.5216 31.1998 22.0656 31.1998 18C31.1998 12.9272 27.073 8.80005 21.9998 8.80005C16.9266 8.80005 12.7998 12.9272 12.7998 18C12.7998 22.0656 15.4518 25.5216 19.1162 26.7344Z" fill="white"/>
<path d="M51.2784 15.9375H48.7898C48.7443 15.6155 48.6515 15.3295 48.5114 15.0795C48.3712 14.8258 48.1913 14.6098 47.9716 14.4318C47.7519 14.2538 47.4981 14.1174 47.2102 14.0227C46.9261 13.928 46.6174 13.8807 46.2841 13.8807C45.6818 13.8807 45.1572 14.0303 44.7102 14.3295C44.2633 14.625 43.9167 15.0568 43.6705 15.625C43.4242 16.1894 43.3011 16.875 43.3011 17.6818C43.3011 18.5114 43.4242 19.2083 43.6705 19.7727C43.9205 20.3371 44.2689 20.7633 44.7159 21.0511C45.1629 21.339 45.6799 21.483 46.267 21.483C46.5966 21.483 46.9015 21.4394 47.1818 21.3523C47.4659 21.2652 47.7178 21.1383 47.9375 20.9716C48.1572 20.8011 48.339 20.5947 48.483 20.3523C48.6307 20.1098 48.733 19.8333 48.7898 19.5227L51.2784 19.5341C51.214 20.0682 51.053 20.5833 50.7955 21.0795C50.5417 21.572 50.1989 22.0133 49.767 22.4034C49.339 22.7898 48.8277 23.0966 48.233 23.3239C47.642 23.5473 46.9735 23.6591 46.2273 23.6591C45.1894 23.6591 44.2614 23.4242 43.4432 22.9545C42.6288 22.4848 41.9848 21.8049 41.5114 20.9148C41.0417 20.0246 40.8068 18.947 40.8068 17.6818C40.8068 16.4129 41.0455 15.3333 41.5227 14.4432C42 13.553 42.6477 12.875 43.4659 12.4091C44.2841 11.9394 45.2045 11.7045 46.2273 11.7045C46.9015 11.7045 47.5265 11.7992 48.1023 11.9886C48.6818 12.178 49.1951 12.4545 49.642 12.8182C50.089 13.178 50.4527 13.6193 50.733 14.142C51.017 14.6648 51.1989 15.2633 51.2784 15.9375ZM63.7358 17.6818C63.7358 18.9508 63.4953 20.0303 63.0142 20.9205C62.5369 21.8106 61.8854 22.4905 61.0597 22.9602C60.2377 23.4261 59.3134 23.6591 58.2869 23.6591C57.2528 23.6591 56.3248 23.4242 55.5028 22.9545C54.6809 22.4848 54.0313 21.8049 53.554 20.9148C53.0767 20.0246 52.8381 18.947 52.8381 17.6818C52.8381 16.4129 53.0767 15.3333 53.554 14.4432C54.0313 13.553 54.6809 12.875 55.5028 12.4091C56.3248 11.9394 57.2528 11.7045 58.2869 11.7045C59.3134 11.7045 60.2377 11.9394 61.0597 12.4091C61.8854 12.875 62.5369 13.553 63.0142 14.4432C63.4953 15.3333 63.7358 16.4129 63.7358 17.6818ZM61.2415 17.6818C61.2415 16.8598 61.1184 16.1667 60.8722 15.6023C60.6297 15.0379 60.2869 14.6098 59.8438 14.3182C59.4006 14.0265 58.8816 13.8807 58.2869 13.8807C57.6922 13.8807 57.1733 14.0265 56.7301 14.3182C56.2869 14.6098 55.9422 15.0379 55.696 15.6023C55.4536 16.1667 55.3324 16.8598 55.3324 17.6818C55.3324 18.5038 55.4536 19.197 55.696 19.7614C55.9422 20.3258 56.2869 20.7538 56.7301 21.0455C57.1733 21.3371 57.6922 21.483 58.2869 21.483C58.8816 21.483 59.4006 21.3371 59.8438 21.0455C60.2869 20.7538 60.6297 20.3258 60.8722 19.7614C61.1184 19.197 61.2415 18.5038 61.2415 17.6818ZM69.6832 23.5H65.5582V11.8636H69.7173C70.8878 11.8636 71.8954 12.0966 72.7401 12.5625C73.5848 13.0246 74.2344 13.6894 74.6889 14.5568C75.1473 15.4242 75.3764 16.4621 75.3764 17.6705C75.3764 18.8826 75.1473 19.9242 74.6889 20.7955C74.2344 21.6667 73.581 22.3352 72.7287 22.8011C71.8802 23.267 70.8651 23.5 69.6832 23.5ZM68.0185 21.392H69.581C70.3082 21.392 70.92 21.2633 71.4162 21.0057C71.9162 20.7443 72.2912 20.3409 72.5412 19.7955C72.795 19.2462 72.9219 18.5379 72.9219 17.6705C72.9219 16.8106 72.795 16.108 72.5412 15.5625C72.2912 15.017 71.9181 14.6155 71.4219 14.358C70.9257 14.1004 70.3139 13.9716 69.5866 13.9716H68.0185V21.392ZM77.1989 23.5V11.8636H85.0398V13.892H79.6591V16.6648H84.6364V18.6932H79.6591V21.4716H85.0625V23.5H77.1989Z" fill="white"/>
</svg>
