<svg width="124" height="40" viewBox="0 0 124 40" fill="none" xmlns="http://www.w3.org/2000/svg">
<rect width="124" height="40" rx="4" fill="black"/>
<path d="M26.5396 30.4812C26.8809 30.3344 27.12 29.995 27.12 29.6V27.008C27.12 26.9134 27.1276 26.815 27.1396 26.7152C27.1329 26.7171 27.1267 26.7185 27.12 26.72C27.12 26.72 25.68 26.72 25.392 26.72C24.672 26.72 24.048 26.432 23.76 25.856C23.424 25.232 23.28 24.176 22.416 23.6C22.272 23.504 22.368 23.36 22.656 23.36C22.944 23.408 23.568 23.792 23.952 24.32C24.384 24.848 24.816 25.28 25.584 25.28C26.7777 25.28 27.4176 25.22 27.8025 25.0136C28.2508 24.3468 28.8715 23.84 29.52 23.84V23.828C26.7993 23.7406 25.0612 22.8363 24.252 21.44C22.4928 21.4601 20.9611 21.6344 20.087 21.7793C20.0592 21.6224 20.0352 21.4644 20.0145 21.3056C20.8771 21.1635 22.3392 20.995 24.0201 20.9628C23.9664 20.8304 23.9198 20.6945 23.8804 20.5553C22.1952 20.4699 20.7408 20.5366 19.9507 20.6019C19.9411 20.4425 19.9281 20.2836 19.9262 20.1224C20.7177 20.0576 22.1328 19.9928 23.7748 20.0691C23.7369 19.8291 23.7124 19.5838 23.7124 19.3284C23.7124 18.5124 24.0004 17.6484 24.5284 16.9284C24.2884 16.1124 23.9524 14.3844 24.6244 13.7604C25.9204 13.7604 26.8324 14.3844 27.2644 14.7684C28.08 14.432 28.992 14.24 30 14.24C31.008 14.24 31.92 14.432 32.688 14.768C33.12 14.384 34.032 13.76 35.328 13.76C36.048 14.432 35.664 16.16 35.424 16.928C35.952 17.648 36.24 18.464 36.192 19.328C36.192 19.5603 36.1704 19.7844 36.1392 20.0043C37.8187 19.9217 39.2721 19.988 40.0771 20.0532C40.0761 20.215 40.0612 20.3729 40.0526 20.5328C39.2505 20.4665 37.7606 20.3984 36.0403 20.49C35.9976 20.6513 35.9457 20.8083 35.8843 20.9604C37.5864 20.9825 39.0835 21.1472 39.9873 21.2912C39.9667 21.4505 39.9427 21.6084 39.9148 21.7649C38.9971 21.618 37.4328 21.4462 35.6529 21.4376C34.8537 22.819 33.1473 23.72 30.48 23.8251V23.84C31.728 23.84 32.88 25.712 32.88 27.008V29.6C32.88 29.995 33.119 30.3344 33.4603 30.4812C37.8576 29.0259 41.04 24.8787 41.04 20C41.04 13.9126 36.0878 8.95996 30 8.95996C23.9121 8.95996 18.96 13.9126 18.96 20C18.96 24.8787 22.1424 29.0259 26.5396 30.4812Z" fill="white"/>
<path d="M66.6882 18.4922H63.8885C63.8374 18.13 63.733 17.8082 63.5753 17.527C63.4176 17.2415 63.2152 16.9986 62.968 16.7983C62.7209 16.598 62.4354 16.4446 62.1115 16.3381C61.7919 16.2315 61.4446 16.1783 61.0696 16.1783C60.392 16.1783 59.8018 16.3466 59.299 16.6832C58.7962 17.0156 58.4063 17.5014 58.1293 18.1406C57.8523 18.7756 57.7138 19.5469 57.7138 20.4545C57.7138 21.3878 57.8523 22.1719 58.1293 22.8068C58.4105 23.4418 58.8026 23.9212 59.3054 24.245C59.8082 24.5689 60.3899 24.7308 61.0504 24.7308C61.4212 24.7308 61.7642 24.6818 62.0795 24.5838C62.3991 24.4858 62.6825 24.343 62.9297 24.1555C63.1768 23.9638 63.3814 23.7315 63.5433 23.4588C63.7095 23.1861 63.8246 22.875 63.8885 22.5256L66.6882 22.5384C66.6158 23.1392 66.4347 23.7188 66.1449 24.277C65.8594 24.831 65.4737 25.3274 64.9879 25.7663C64.5064 26.201 63.9311 26.5462 63.2621 26.8018C62.5973 27.0533 61.8452 27.179 61.0057 27.179C59.8381 27.179 58.794 26.9148 57.8736 26.3864C56.9574 25.858 56.233 25.093 55.7003 24.0916C55.1719 23.0902 54.9077 21.8778 54.9077 20.4545C54.9077 19.027 55.1761 17.8125 55.7131 16.8111C56.25 15.8097 56.9787 15.0469 57.8991 14.5227C58.8196 13.9943 59.8551 13.7301 61.0057 13.7301C61.7642 13.7301 62.4673 13.8366 63.1151 14.0497C63.767 14.2628 64.3445 14.5739 64.8473 14.983C65.3501 15.3878 65.7592 15.8842 66.0746 16.4723C66.3942 17.0604 66.5987 17.7337 66.6882 18.4922ZM80.7028 20.4545C80.7028 21.8821 80.4322 23.0966 79.891 24.098C79.354 25.0994 78.6211 25.8643 77.6921 26.3928C76.7674 26.9169 75.7276 27.179 74.5728 27.179C73.4094 27.179 72.3654 26.9148 71.4407 26.3864C70.516 25.858 69.7852 25.093 69.2482 24.0916C68.7113 23.0902 68.4428 21.8778 68.4428 20.4545C68.4428 19.027 68.7113 17.8125 69.2482 16.8111C69.7852 15.8097 70.516 15.0469 71.4407 14.5227C72.3654 13.9943 73.4094 13.7301 74.5728 13.7301C75.7276 13.7301 76.7674 13.9943 77.6921 14.5227C78.6211 15.0469 79.354 15.8097 79.891 16.8111C80.4322 17.8125 80.7028 19.027 80.7028 20.4545ZM77.8967 20.4545C77.8967 19.5298 77.7582 18.75 77.4812 18.1151C77.2085 17.4801 76.8228 16.9986 76.3242 16.6705C75.8256 16.3423 75.2418 16.1783 74.5728 16.1783C73.9038 16.1783 73.32 16.3423 72.8214 16.6705C72.3228 16.9986 71.935 17.4801 71.658 18.1151C71.3853 18.75 71.2489 19.5298 71.2489 20.4545C71.2489 21.3793 71.3853 22.1591 71.658 22.794C71.935 23.429 72.3228 23.9105 72.8214 24.2386C73.32 24.5668 73.9038 24.7308 74.5728 24.7308C75.2418 24.7308 75.8256 24.5668 76.3242 24.2386C76.8228 23.9105 77.2085 23.429 77.4812 22.794C77.7582 22.1591 77.8967 21.3793 77.8967 20.4545ZM87.3936 27H82.753V13.9091H87.432C88.7488 13.9091 89.8823 14.1712 90.8326 14.6953C91.7828 15.2152 92.5137 15.9631 93.025 16.9389C93.5407 17.9148 93.7985 19.0824 93.7985 20.4418C93.7985 21.8054 93.5407 22.9773 93.025 23.9574C92.5137 24.9375 91.7786 25.6896 90.8198 26.2138C89.8652 26.7379 88.7232 27 87.3936 27ZM85.5208 24.6286H87.2786C88.0968 24.6286 88.785 24.4837 89.3432 24.1939C89.9057 23.8999 90.3276 23.446 90.6088 22.8324C90.8944 22.2145 91.0371 21.4176 91.0371 20.4418C91.0371 19.4744 90.8944 18.6839 90.6088 18.0703C90.3276 17.4567 89.9078 17.005 89.3496 16.7152C88.7914 16.4254 88.1032 16.2805 87.285 16.2805H85.5208V24.6286ZM95.8487 27V13.9091H104.67V16.1911H98.6165V19.3104H104.216V21.5923H98.6165V24.718H104.695V27H95.8487Z" fill="white"/>
</svg>
