<svg width="256" height="30" viewBox="0 0 256 30" fill="none" xmlns="http://www.w3.org/2000/svg">
<rect width="256" height="30" fill="#20222D"/>
<path d="M42.4588 14.3281H40.5923C40.5582 14.0866 40.4886 13.8722 40.3835 13.6847C40.2784 13.4943 40.1435 13.3324 39.9787 13.1989C39.8139 13.0653 39.6236 12.9631 39.4077 12.892C39.1946 12.821 38.9631 12.7855 38.7131 12.7855C38.2614 12.7855 37.8679 12.8977 37.5327 13.1222C37.1974 13.3437 36.9375 13.6676 36.7528 14.0938C36.5682 14.517 36.4759 15.0312 36.4759 15.6364C36.4759 16.2585 36.5682 16.7812 36.7528 17.2045C36.9403 17.6278 37.2017 17.9474 37.5369 18.1634C37.8722 18.3793 38.2599 18.4872 38.7003 18.4872C38.9474 18.4872 39.1761 18.4545 39.3864 18.3892C39.5994 18.3239 39.7884 18.2287 39.9531 18.1037C40.1179 17.9759 40.2543 17.821 40.3622 17.6392C40.473 17.4574 40.5497 17.25 40.5923 17.017L42.4588 17.0256C42.4105 17.4261 42.2898 17.8125 42.0966 18.1847C41.9063 18.554 41.6491 18.8849 41.3253 19.1776C41.0043 19.4673 40.6207 19.6974 40.1747 19.8679C39.7315 20.0355 39.2301 20.1193 38.6705 20.1193C37.892 20.1193 37.196 19.9432 36.5824 19.5909C35.9716 19.2386 35.4886 18.7287 35.1335 18.0611C34.7812 17.3935 34.6051 16.5852 34.6051 15.6364C34.6051 14.6847 34.7841 13.875 35.142 13.2074C35.5 12.5398 35.9858 12.0312 36.5994 11.6818C37.2131 11.3295 37.9034 11.1534 38.6705 11.1534C39.1761 11.1534 39.6449 11.2244 40.0767 11.3665C40.5114 11.5085 40.8963 11.7159 41.2315 11.9886C41.5668 12.2585 41.8395 12.5895 42.0497 12.9815C42.2628 13.3736 42.3991 13.8224 42.4588 14.3281ZM43.782 20V11.2727H45.6271V14.8736H49.3729V11.2727H51.2138V20H49.3729V16.3949H45.6271V20H43.782ZM52.7351 20V11.2727H58.6158V12.794H54.5803V14.8736H58.3132V16.3949H54.5803V18.4787H58.6328V20H52.7351ZM67.783 14.3281H65.9165C65.8825 14.0866 65.8129 13.8722 65.7077 13.6847C65.6026 13.4943 65.4677 13.3324 65.3029 13.1989C65.1381 13.0653 64.9478 12.9631 64.7319 12.892C64.5188 12.821 64.2873 12.7855 64.0373 12.7855C63.5856 12.7855 63.1921 12.8977 62.8569 13.1222C62.5217 13.3437 62.2617 13.6676 62.0771 14.0938C61.8924 14.517 61.8001 15.0312 61.8001 15.6364C61.8001 16.2585 61.8924 16.7812 62.0771 17.2045C62.2646 17.6278 62.5259 17.9474 62.8612 18.1634C63.1964 18.3793 63.5842 18.4872 64.0245 18.4872C64.2717 18.4872 64.5004 18.4545 64.7106 18.3892C64.9237 18.3239 65.1126 18.2287 65.2773 18.1037C65.4421 17.9759 65.5785 17.821 65.6864 17.6392C65.7972 17.4574 65.8739 17.25 65.9165 17.017L67.783 17.0256C67.7347 17.4261 67.614 17.8125 67.4208 18.1847C67.2305 18.554 66.9734 18.8849 66.6495 19.1776C66.3285 19.4673 65.945 19.6974 65.4989 19.8679C65.0558 20.0355 64.5543 20.1193 63.9947 20.1193C63.2163 20.1193 62.5202 19.9432 61.9066 19.5909C61.2958 19.2386 60.8129 18.7287 60.4577 18.0611C60.1055 17.3935 59.9293 16.5852 59.9293 15.6364C59.9293 14.6847 60.1083 13.875 60.4663 13.2074C60.8242 12.5398 61.31 12.0312 61.9237 11.6818C62.5373 11.3295 63.2276 11.1534 63.9947 11.1534C64.5004 11.1534 64.9691 11.2244 65.4009 11.3665C65.8356 11.5085 66.2205 11.7159 66.5558 11.9886C66.891 12.2585 67.1637 12.5895 67.3739 12.9815C67.587 13.3736 67.7234 13.8224 67.783 14.3281ZM69.1062 20V11.2727H70.9513V15.1207H71.0664L74.207 11.2727H76.4187L73.18 15.1804L76.457 20H74.2496L71.859 16.4119L70.9513 17.5199V20H69.1062ZM84.9073 15.6364C84.9073 16.5881 84.7269 17.3977 84.3661 18.0653C84.0082 18.733 83.5195 19.2429 82.9002 19.5952C82.2837 19.9446 81.5906 20.1193 80.8207 20.1193C80.0451 20.1193 79.3491 19.9432 78.7326 19.5909C78.1161 19.2386 77.6289 18.7287 77.271 18.0611C76.913 17.3935 76.734 16.5852 76.734 15.6364C76.734 14.6847 76.913 13.875 77.271 13.2074C77.6289 12.5398 78.1161 12.0312 78.7326 11.6818C79.3491 11.3295 80.0451 11.1534 80.8207 11.1534C81.5906 11.1534 82.2837 11.3295 82.9002 11.6818C83.5195 12.0312 84.0082 12.5398 84.3661 13.2074C84.7269 13.875 84.9073 14.6847 84.9073 15.6364ZM83.0366 15.6364C83.0366 15.0199 82.9442 14.5 82.7596 14.0767C82.5778 13.6534 82.3207 13.3324 81.9883 13.1136C81.6559 12.8949 81.2667 12.7855 80.8207 12.7855C80.3746 12.7855 79.9854 12.8949 79.6531 13.1136C79.3207 13.3324 79.0621 13.6534 78.8775 14.0767C78.6957 14.5 78.6048 15.0199 78.6048 15.6364C78.6048 16.2528 78.6957 16.7727 78.8775 17.196C79.0621 17.6193 79.3207 17.9403 79.6531 18.1591C79.9854 18.3778 80.3746 18.4872 80.8207 18.4872C81.2667 18.4872 81.6559 18.3778 81.9883 18.1591C82.3207 17.9403 82.5778 17.6193 82.7596 17.196C82.9442 16.7727 83.0366 16.2528 83.0366 15.6364ZM91.6648 11.2727H93.5099V16.9403C93.5099 17.5767 93.358 18.1335 93.054 18.6108C92.7528 19.0881 92.331 19.4602 91.7884 19.7273C91.2457 19.9915 90.6136 20.1236 89.892 20.1236C89.1676 20.1236 88.5341 19.9915 87.9915 19.7273C87.4489 19.4602 87.027 19.0881 86.7259 18.6108C86.4247 18.1335 86.2741 17.5767 86.2741 16.9403V11.2727H88.1193V16.7827C88.1193 17.1151 88.1918 17.4105 88.3366 17.669C88.4844 17.9276 88.6918 18.1307 88.9588 18.2784C89.2259 18.4261 89.5369 18.5 89.892 18.5C90.25 18.5 90.5611 18.4261 90.8253 18.2784C91.0923 18.1307 91.2983 17.9276 91.4432 17.669C91.5909 17.4105 91.6648 17.1151 91.6648 16.7827V11.2727ZM94.6957 12.794V11.2727H101.863V12.794H99.1914V20H97.3675V12.794H94.6957ZM105.821 11.2727H108.097L110.5 17.1364H110.602L113.006 11.2727H115.281V20H113.491V14.3196H113.419L111.161 19.9574H109.942L107.683 14.2983H107.611V20H105.821V11.2727ZM116.29 11.2727H118.357L120.347 15.0312H120.432L122.422 11.2727H124.489L121.306 16.9148V20H119.473V16.9148L116.29 11.2727ZM135.974 14.3281H134.108C134.074 14.0866 134.004 13.8722 133.899 13.6847C133.794 13.4943 133.659 13.3324 133.494 13.1989C133.33 13.0653 133.139 12.9631 132.923 12.892C132.71 12.821 132.479 12.7855 132.229 12.7855C131.777 12.7855 131.384 12.8977 131.048 13.1222C130.713 13.3437 130.453 13.6676 130.268 14.0938C130.084 14.517 129.991 15.0312 129.991 15.6364C129.991 16.2585 130.084 16.7812 130.268 17.2045C130.456 17.6278 130.717 17.9474 131.053 18.1634C131.388 18.3793 131.776 18.4872 132.216 18.4872C132.463 18.4872 132.692 18.4545 132.902 18.3892C133.115 18.3239 133.304 18.2287 133.469 18.1037C133.634 17.9759 133.77 17.821 133.878 17.6392C133.989 17.4574 134.065 17.25 134.108 17.017L135.974 17.0256C135.926 17.4261 135.805 17.8125 135.612 18.1847C135.422 18.554 135.165 18.8849 134.841 19.1776C134.52 19.4673 134.136 19.6974 133.69 19.8679C133.247 20.0355 132.746 20.1193 132.186 20.1193C131.408 20.1193 130.712 19.9432 130.098 19.5909C129.487 19.2386 129.004 18.7287 128.649 18.0611C128.297 17.3935 128.121 16.5852 128.121 15.6364C128.121 14.6847 128.3 13.875 128.658 13.2074C129.016 12.5398 129.501 12.0312 130.115 11.6818C130.729 11.3295 131.419 11.1534 132.186 11.1534C132.692 11.1534 133.161 11.2244 133.592 11.3665C134.027 11.5085 134.412 11.7159 134.747 11.9886C135.082 12.2585 135.355 12.5895 135.565 12.9815C135.778 13.3736 135.915 13.8224 135.974 14.3281ZM145.317 15.6364C145.317 16.5881 145.137 17.3977 144.776 18.0653C144.418 18.733 143.93 19.2429 143.31 19.5952C142.694 19.9446 142.001 20.1193 141.231 20.1193C140.455 20.1193 139.759 19.9432 139.143 19.5909C138.526 19.2386 138.039 18.7287 137.681 18.0611C137.323 17.3935 137.144 16.5852 137.144 15.6364C137.144 14.6847 137.323 13.875 137.681 13.2074C138.039 12.5398 138.526 12.0312 139.143 11.6818C139.759 11.3295 140.455 11.1534 141.231 11.1534C142.001 11.1534 142.694 11.3295 143.31 11.6818C143.93 12.0312 144.418 12.5398 144.776 13.2074C145.137 13.875 145.317 14.6847 145.317 15.6364ZM143.447 15.6364C143.447 15.0199 143.354 14.5 143.17 14.0767C142.988 13.6534 142.731 13.3324 142.398 13.1136C142.066 12.8949 141.677 12.7855 141.231 12.7855C140.785 12.7855 140.396 12.8949 140.063 13.1136C139.731 13.3324 139.472 13.6534 139.288 14.0767C139.106 14.5 139.015 15.0199 139.015 15.6364C139.015 16.2528 139.106 16.7727 139.288 17.196C139.472 17.6193 139.731 17.9403 140.063 18.1591C140.396 18.3778 140.785 18.4872 141.231 18.4872C141.677 18.4872 142.066 18.3778 142.398 18.1591C142.731 17.9403 142.988 17.6193 143.17 17.196C143.354 16.7727 143.447 16.2528 143.447 15.6364ZM152.075 11.2727H153.92V16.9403C153.92 17.5767 153.768 18.1335 153.464 18.6108C153.163 19.0881 152.741 19.4602 152.199 19.7273C151.656 19.9915 151.024 20.1236 150.302 20.1236C149.578 20.1236 148.944 19.9915 148.402 19.7273C147.859 19.4602 147.437 19.0881 147.136 18.6108C146.835 18.1335 146.684 17.5767 146.684 16.9403V11.2727H148.529V16.7827C148.529 17.1151 148.602 17.4105 148.747 17.669C148.895 17.9276 149.102 18.1307 149.369 18.2784C149.636 18.4261 149.947 18.5 150.302 18.5C150.66 18.5 150.971 18.4261 151.235 18.2784C151.502 18.1307 151.708 17.9276 151.853 17.669C152.001 17.4105 152.075 17.1151 152.075 16.7827V11.2727ZM155.438 20V11.2727H158.881C159.54 11.2727 160.103 11.3906 160.569 11.6264C161.038 11.8594 161.394 12.1903 161.638 12.6193C161.886 13.0455 162.009 13.5469 162.009 14.1236C162.009 14.7031 161.884 15.2017 161.634 15.6193C161.384 16.0341 161.022 16.3523 160.548 16.5739C160.076 16.7955 159.505 16.9062 158.835 16.9062H156.529V15.4233H158.536C158.888 15.4233 159.181 15.375 159.414 15.2784C159.647 15.1818 159.82 15.0369 159.934 14.8438C160.05 14.6506 160.109 14.4105 160.109 14.1236C160.109 13.8338 160.05 13.5895 159.934 13.3906C159.82 13.1918 159.646 13.0412 159.41 12.9389C159.177 12.8338 158.883 12.7812 158.528 12.7812H157.283V20H155.438ZM160.151 16.0284L162.32 20H160.283L158.161 16.0284H160.151ZM168.048 13.7827C168.013 13.4389 167.867 13.1719 167.609 12.9815C167.35 12.7912 166.999 12.696 166.556 12.696C166.255 12.696 166.001 12.7386 165.793 12.8239C165.586 12.9062 165.427 13.0213 165.316 13.169C165.208 13.3168 165.154 13.4844 165.154 13.6719C165.148 13.8281 165.181 13.9645 165.252 14.081C165.326 14.1974 165.427 14.2983 165.555 14.3835C165.683 14.4659 165.83 14.5384 165.998 14.6009C166.165 14.6605 166.344 14.7116 166.535 14.7543L167.319 14.9418C167.7 15.027 168.049 15.1406 168.367 15.2827C168.685 15.4247 168.961 15.5994 169.194 15.8068C169.427 16.0142 169.607 16.2585 169.735 16.5398C169.866 16.821 169.933 17.1435 169.935 17.5071C169.933 18.0412 169.796 18.5043 169.526 18.8963C169.259 19.2855 168.873 19.5881 168.367 19.804C167.864 20.017 167.258 20.1236 166.548 20.1236C165.843 20.1236 165.229 20.0156 164.707 19.7997C164.187 19.5838 163.781 19.2642 163.488 18.8409C163.198 18.4148 163.046 17.8878 163.032 17.2599H164.817C164.837 17.5526 164.921 17.7969 165.069 17.9929C165.219 18.1861 165.42 18.3324 165.67 18.4318C165.923 18.5284 166.208 18.5767 166.526 18.5767C166.839 18.5767 167.11 18.5312 167.34 18.4403C167.573 18.3494 167.754 18.223 167.881 18.0611C168.009 17.8991 168.073 17.7131 168.073 17.5028C168.073 17.3068 168.015 17.142 167.898 17.0085C167.785 16.875 167.617 16.7614 167.396 16.6676C167.177 16.5739 166.908 16.4886 166.59 16.4119L165.64 16.1733C164.904 15.9943 164.323 15.7145 163.897 15.3338C163.471 14.9531 163.259 14.4403 163.262 13.7955C163.259 13.267 163.4 12.8054 163.684 12.4105C163.971 12.0156 164.364 11.7074 164.864 11.4858C165.364 11.2642 165.933 11.1534 166.569 11.1534C167.217 11.1534 167.782 11.2642 168.265 11.4858C168.751 11.7074 169.129 12.0156 169.398 12.4105C169.668 12.8054 169.808 13.2628 169.816 13.7827H168.048ZM171.176 20V11.2727H177.057V12.794H173.022V14.8736H176.755V16.3949H173.022V18.4787H177.074V20H171.176ZM181.301 20V11.2727H184.745C185.407 11.2727 185.971 11.3991 186.436 11.652C186.902 11.902 187.257 12.25 187.502 12.696C187.749 13.1392 187.873 13.6506 187.873 14.2301C187.873 14.8097 187.748 15.321 187.498 15.7642C187.248 16.2074 186.885 16.5526 186.411 16.7997C185.939 17.0469 185.368 17.1705 184.698 17.1705H182.503V15.6918H184.4C184.755 15.6918 185.047 15.6307 185.277 15.5085C185.51 15.3835 185.684 15.2116 185.797 14.9929C185.914 14.7713 185.972 14.517 185.972 14.2301C185.972 13.9403 185.914 13.6875 185.797 13.4716C185.684 13.2528 185.51 13.0838 185.277 12.9645C185.044 12.8423 184.749 12.7812 184.391 12.7812H183.147V20H181.301ZM189.071 20V11.2727H192.514C193.173 11.2727 193.736 11.3906 194.202 11.6264C194.67 11.8594 195.027 12.1903 195.271 12.6193C195.518 13.0455 195.642 13.5469 195.642 14.1236C195.642 14.7031 195.517 15.2017 195.267 15.6193C195.017 16.0341 194.655 16.3523 194.18 16.5739C193.709 16.7955 193.138 16.9062 192.467 16.9062H190.162V15.4233H192.169C192.521 15.4233 192.814 15.375 193.047 15.2784C193.28 15.1818 193.453 15.0369 193.567 14.8438C193.683 14.6506 193.741 14.4105 193.741 14.1236C193.741 13.8338 193.683 13.5895 193.567 13.3906C193.453 13.1918 193.278 13.0412 193.043 12.9389C192.81 12.8338 192.516 12.7812 192.161 12.7812H190.916V20H189.071ZM193.784 16.0284L195.953 20H193.916L191.794 16.0284H193.784ZM204.966 15.6364C204.966 16.5881 204.786 17.3977 204.425 18.0653C204.067 18.733 203.578 19.2429 202.959 19.5952C202.342 19.9446 201.649 20.1193 200.879 20.1193C200.104 20.1193 199.408 19.9432 198.791 19.5909C198.175 19.2386 197.688 18.7287 197.33 18.0611C196.972 17.3935 196.793 16.5852 196.793 15.6364C196.793 14.6847 196.972 13.875 197.33 13.2074C197.688 12.5398 198.175 12.0312 198.791 11.6818C199.408 11.3295 200.104 11.1534 200.879 11.1534C201.649 11.1534 202.342 11.3295 202.959 11.6818C203.578 12.0312 204.067 12.5398 204.425 13.2074C204.786 13.875 204.966 14.6847 204.966 15.6364ZM203.095 15.6364C203.095 15.0199 203.003 14.5 202.818 14.0767C202.636 13.6534 202.379 13.3324 202.047 13.1136C201.714 12.8949 201.325 12.7855 200.879 12.7855C200.433 12.7855 200.044 12.8949 199.712 13.1136C199.379 13.3324 199.121 13.6534 198.936 14.0767C198.754 14.5 198.663 15.0199 198.663 15.6364C198.663 16.2528 198.754 16.7727 198.936 17.196C199.121 17.6193 199.379 17.9403 199.712 18.1591C200.044 18.3778 200.433 18.4872 200.879 18.4872C201.325 18.4872 201.714 18.3778 202.047 18.1591C202.379 17.9403 202.636 17.6193 202.818 17.196C203.003 16.7727 203.095 16.2528 203.095 15.6364ZM209.827 11.2727H211.651V17.358C211.651 17.9205 211.525 18.4091 211.272 18.8239C211.022 19.2386 210.674 19.5582 210.228 19.7827C209.782 20.0071 209.263 20.1193 208.672 20.1193C208.147 20.1193 207.669 20.027 207.24 19.8423C206.814 19.6548 206.476 19.3707 206.226 18.9901C205.976 18.6065 205.853 18.125 205.855 17.5455H207.692C207.698 17.7756 207.745 17.973 207.833 18.1378C207.924 18.2997 208.047 18.4247 208.203 18.5128C208.363 18.598 208.55 18.6406 208.766 18.6406C208.993 18.6406 209.185 18.5923 209.341 18.4957C209.5 18.3963 209.621 18.2514 209.703 18.0611C209.786 17.8707 209.827 17.6364 209.827 17.358V11.2727ZM213.176 20V11.2727H219.057V12.794H215.022V14.8736H218.755V16.3949H215.022V18.4787H219.074V20H213.176ZM228.224 14.3281H226.358C226.324 14.0866 226.254 13.8722 226.149 13.6847C226.044 13.4943 225.909 13.3324 225.744 13.1989C225.58 13.0653 225.389 12.9631 225.173 12.892C224.96 12.821 224.729 12.7855 224.479 12.7855C224.027 12.7855 223.634 12.8977 223.298 13.1222C222.963 13.3437 222.703 13.6676 222.518 14.0938C222.334 14.517 222.241 15.0312 222.241 15.6364C222.241 16.2585 222.334 16.7812 222.518 17.2045C222.706 17.6278 222.967 17.9474 223.303 18.1634C223.638 18.3793 224.026 18.4872 224.466 18.4872C224.713 18.4872 224.942 18.4545 225.152 18.3892C225.365 18.3239 225.554 18.2287 225.719 18.1037C225.884 17.9759 226.02 17.821 226.128 17.6392C226.239 17.4574 226.315 17.25 226.358 17.017L228.224 17.0256C228.176 17.4261 228.055 17.8125 227.862 18.1847C227.672 18.554 227.415 18.8849 227.091 19.1776C226.77 19.4673 226.386 19.6974 225.94 19.8679C225.497 20.0355 224.996 20.1193 224.436 20.1193C223.658 20.1193 222.962 19.9432 222.348 19.5909C221.737 19.2386 221.254 18.7287 220.899 18.0611C220.547 17.3935 220.371 16.5852 220.371 15.6364C220.371 14.6847 220.55 13.875 220.908 13.2074C221.266 12.5398 221.751 12.0312 222.365 11.6818C222.979 11.3295 223.669 11.1534 224.436 11.1534C224.942 11.1534 225.411 11.2244 225.842 11.3665C226.277 11.5085 226.662 11.7159 226.997 11.9886C227.332 12.2585 227.605 12.5895 227.815 12.9815C228.028 13.3736 228.165 13.8224 228.224 14.3281ZM229.215 12.794V11.2727H236.383V12.794H233.711V20H231.887V12.794H229.215ZM242.298 13.7827C242.263 13.4389 242.117 13.1719 241.859 12.9815C241.6 12.7912 241.249 12.696 240.806 12.696C240.505 12.696 240.251 12.7386 240.043 12.8239C239.836 12.9062 239.677 13.0213 239.566 13.169C239.458 13.3168 239.404 13.4844 239.404 13.6719C239.398 13.8281 239.431 13.9645 239.502 14.081C239.576 14.1974 239.677 14.2983 239.805 14.3835C239.933 14.4659 240.08 14.5384 240.248 14.6009C240.415 14.6605 240.594 14.7116 240.785 14.7543L241.569 14.9418C241.95 15.027 242.299 15.1406 242.617 15.2827C242.935 15.4247 243.211 15.5994 243.444 15.8068C243.677 16.0142 243.857 16.2585 243.985 16.5398C244.116 16.821 244.183 17.1435 244.185 17.5071C244.183 18.0412 244.046 18.5043 243.776 18.8963C243.509 19.2855 243.123 19.5881 242.617 19.804C242.114 20.017 241.508 20.1236 240.798 20.1236C240.093 20.1236 239.479 20.0156 238.957 19.7997C238.437 19.5838 238.031 19.2642 237.738 18.8409C237.448 18.4148 237.296 17.8878 237.282 17.2599H239.067C239.087 17.5526 239.171 17.7969 239.319 17.9929C239.469 18.1861 239.67 18.3324 239.92 18.4318C240.173 18.5284 240.458 18.5767 240.776 18.5767C241.089 18.5767 241.36 18.5312 241.59 18.4403C241.823 18.3494 242.004 18.223 242.131 18.0611C242.259 17.8991 242.323 17.7131 242.323 17.5028C242.323 17.3068 242.265 17.142 242.148 17.0085C242.035 16.875 241.867 16.7614 241.646 16.6676C241.427 16.5739 241.158 16.4886 240.84 16.4119L239.89 16.1733C239.154 15.9943 238.573 15.7145 238.147 15.3338C237.721 14.9531 237.509 14.4403 237.512 13.7955C237.509 13.267 237.65 12.8054 237.934 12.4105C238.221 12.0156 238.614 11.7074 239.114 11.4858C239.614 11.2642 240.183 11.1534 240.819 11.1534C241.467 11.1534 242.032 11.2642 242.515 11.4858C243.001 11.7074 243.379 12.0156 243.648 12.4105C243.918 12.8054 244.058 13.2628 244.066 13.7827H242.298Z" fill="white"/>
<path d="M23.3333 14.3333C23.1565 14.3333 22.987 14.4036 22.8619 14.5286C22.7369 14.6536 22.6667 14.8232 22.6667 15V19C22.6667 19.1768 22.5964 19.3464 22.4714 19.4714C22.3464 19.5964 22.1768 19.6667 22 19.6667H14C13.8232 19.6667 13.6536 19.5964 13.5286 19.4714C13.4036 19.3464 13.3333 19.1768 13.3333 19V11C13.3333 10.8232 13.4036 10.6536 13.5286 10.5286C13.6536 10.4036 13.8232 10.3333 14 10.3333H18C18.1768 10.3333 18.3464 10.2631 18.4714 10.1381C18.5964 10.013 18.6667 9.84348 18.6667 9.66667C18.6667 9.48986 18.5964 9.32029 18.4714 9.19526C18.3464 9.07024 18.1768 9 18 9H14C13.4696 9 12.9609 9.21071 12.5858 9.58579C12.2107 9.96086 12 10.4696 12 11V19C12 19.5304 12.2107 20.0391 12.5858 20.4142C12.9609 20.7893 13.4696 21 14 21H22C22.5304 21 23.0391 20.7893 23.4142 20.4142C23.7893 20.0391 24 19.5304 24 19V15C24 14.8232 23.9298 14.6536 23.8047 14.5286C23.6797 14.4036 23.5101 14.3333 23.3333 14.3333Z" fill="white"/>
<path d="M21.3372 9.33333H22.3905L18.1972 13.52C18.1347 13.582 18.0851 13.6557 18.0513 13.7369C18.0174 13.8182 18 13.9053 18 13.9933C18 14.0813 18.0174 14.1685 18.0513 14.2497C18.0851 14.331 18.1347 14.4047 18.1972 14.4667C18.2592 14.5292 18.3329 14.5787 18.4141 14.6126C18.4954 14.6464 18.5825 14.6639 18.6705 14.6639C18.7585 14.6639 18.8457 14.6464 18.9269 14.6126C19.0082 14.5787 19.0819 14.5292 19.1439 14.4667L23.3372 10.28V11.3333C23.3372 11.5101 23.4074 11.6797 23.5325 11.8047C23.6575 11.9298 23.8271 12 24.0039 12C24.1807 12 24.3502 11.9298 24.4753 11.8047C24.6003 11.6797 24.6705 11.5101 24.6705 11.3333V8.66667C24.6705 8.48986 24.6003 8.32029 24.4753 8.19526C24.3502 8.07024 24.1807 8 24.0039 8H21.3372C21.1604 8 20.9908 8.07024 20.8658 8.19526C20.7408 8.32029 20.6705 8.48986 20.6705 8.66667C20.6705 8.84348 20.7408 9.01305 20.8658 9.13807C20.9908 9.2631 21.1604 9.33333 21.3372 9.33333Z" fill="white"/>
</svg>
