<svg width="273" height="30" viewBox="0 0 273 30" fill="none" xmlns="http://www.w3.org/2000/svg">
<rect width="273" height="30" fill="#20222D"/>
<path d="M42.4588 14.3281H40.5923C40.5582 14.0866 40.4886 13.8722 40.3835 13.6847C40.2784 13.4943 40.1435 13.3324 39.9787 13.1989C39.8139 13.0653 39.6236 12.9631 39.4077 12.892C39.1946 12.821 38.9631 12.7855 38.7131 12.7855C38.2614 12.7855 37.8679 12.8977 37.5327 13.1222C37.1974 13.3437 36.9375 13.6676 36.7528 14.0938C36.5682 14.517 36.4759 15.0312 36.4759 15.6364C36.4759 16.2585 36.5682 16.7812 36.7528 17.2045C36.9403 17.6278 37.2017 17.9474 37.5369 18.1634C37.8722 18.3793 38.2599 18.4872 38.7003 18.4872C38.9474 18.4872 39.1761 18.4545 39.3864 18.3892C39.5994 18.3239 39.7884 18.2287 39.9531 18.1037C40.1179 17.9759 40.2543 17.821 40.3622 17.6392C40.473 17.4574 40.5497 17.25 40.5923 17.017L42.4588 17.0256C42.4105 17.4261 42.2898 17.8125 42.0966 18.1847C41.9063 18.554 41.6491 18.8849 41.3253 19.1776C41.0043 19.4673 40.6207 19.6974 40.1747 19.8679C39.7315 20.0355 39.2301 20.1193 38.6705 20.1193C37.892 20.1193 37.196 19.9432 36.5824 19.5909C35.9716 19.2386 35.4886 18.7287 35.1335 18.0611C34.7812 17.3935 34.6051 16.5852 34.6051 15.6364C34.6051 14.6847 34.7841 13.875 35.142 13.2074C35.5 12.5398 35.9858 12.0312 36.5994 11.6818C37.2131 11.3295 37.9034 11.1534 38.6705 11.1534C39.1761 11.1534 39.6449 11.2244 40.0767 11.3665C40.5114 11.5085 40.8963 11.7159 41.2315 11.9886C41.5668 12.2585 41.8395 12.5895 42.0497 12.9815C42.2628 13.3736 42.3991 13.8224 42.4588 14.3281ZM43.782 20V11.2727H45.6271V14.8736H49.3729V11.2727H51.2138V20H49.3729V16.3949H45.6271V20H43.782ZM52.7351 20V11.2727H58.6158V12.794H54.5803V14.8736H58.3132V16.3949H54.5803V18.4787H58.6328V20H52.7351ZM67.783 14.3281H65.9165C65.8825 14.0866 65.8129 13.8722 65.7077 13.6847C65.6026 13.4943 65.4677 13.3324 65.3029 13.1989C65.1381 13.0653 64.9478 12.9631 64.7319 12.892C64.5188 12.821 64.2873 12.7855 64.0373 12.7855C63.5856 12.7855 63.1921 12.8977 62.8569 13.1222C62.5217 13.3437 62.2617 13.6676 62.0771 14.0938C61.8924 14.517 61.8001 15.0312 61.8001 15.6364C61.8001 16.2585 61.8924 16.7812 62.0771 17.2045C62.2646 17.6278 62.5259 17.9474 62.8612 18.1634C63.1964 18.3793 63.5842 18.4872 64.0245 18.4872C64.2717 18.4872 64.5004 18.4545 64.7106 18.3892C64.9237 18.3239 65.1126 18.2287 65.2773 18.1037C65.4421 17.9759 65.5785 17.821 65.6864 17.6392C65.7972 17.4574 65.8739 17.25 65.9165 17.017L67.783 17.0256C67.7347 17.4261 67.614 17.8125 67.4208 18.1847C67.2305 18.554 66.9734 18.8849 66.6495 19.1776C66.3285 19.4673 65.945 19.6974 65.4989 19.8679C65.0558 20.0355 64.5543 20.1193 63.9947 20.1193C63.2163 20.1193 62.5202 19.9432 61.9066 19.5909C61.2958 19.2386 60.8129 18.7287 60.4577 18.0611C60.1055 17.3935 59.9293 16.5852 59.9293 15.6364C59.9293 14.6847 60.1083 13.875 60.4663 13.2074C60.8242 12.5398 61.31 12.0312 61.9237 11.6818C62.5373 11.3295 63.2276 11.1534 63.9947 11.1534C64.5004 11.1534 64.9691 11.2244 65.4009 11.3665C65.8356 11.5085 66.2205 11.7159 66.5558 11.9886C66.891 12.2585 67.1637 12.5895 67.3739 12.9815C67.587 13.3736 67.7234 13.8224 67.783 14.3281ZM69.1062 20V11.2727H70.9513V15.1207H71.0664L74.207 11.2727H76.4187L73.18 15.1804L76.457 20H74.2496L71.859 16.4119L70.9513 17.5199V20H69.1062ZM84.9073 15.6364C84.9073 16.5881 84.7269 17.3977 84.3661 18.0653C84.0082 18.733 83.5195 19.2429 82.9002 19.5952C82.2837 19.9446 81.5906 20.1193 80.8207 20.1193C80.0451 20.1193 79.3491 19.9432 78.7326 19.5909C78.1161 19.2386 77.6289 18.7287 77.271 18.0611C76.913 17.3935 76.734 16.5852 76.734 15.6364C76.734 14.6847 76.913 13.875 77.271 13.2074C77.6289 12.5398 78.1161 12.0312 78.7326 11.6818C79.3491 11.3295 80.0451 11.1534 80.8207 11.1534C81.5906 11.1534 82.2837 11.3295 82.9002 11.6818C83.5195 12.0312 84.0082 12.5398 84.3661 13.2074C84.7269 13.875 84.9073 14.6847 84.9073 15.6364ZM83.0366 15.6364C83.0366 15.0199 82.9442 14.5 82.7596 14.0767C82.5778 13.6534 82.3207 13.3324 81.9883 13.1136C81.6559 12.8949 81.2667 12.7855 80.8207 12.7855C80.3746 12.7855 79.9854 12.8949 79.6531 13.1136C79.3207 13.3324 79.0621 13.6534 78.8775 14.0767C78.6957 14.5 78.6048 15.0199 78.6048 15.6364C78.6048 16.2528 78.6957 16.7727 78.8775 17.196C79.0621 17.6193 79.3207 17.9403 79.6531 18.1591C79.9854 18.3778 80.3746 18.4872 80.8207 18.4872C81.2667 18.4872 81.6559 18.3778 81.9883 18.1591C82.3207 17.9403 82.5778 17.6193 82.7596 17.196C82.9442 16.7727 83.0366 16.2528 83.0366 15.6364ZM91.6648 11.2727H93.5099V16.9403C93.5099 17.5767 93.358 18.1335 93.054 18.6108C92.7528 19.0881 92.331 19.4602 91.7884 19.7273C91.2457 19.9915 90.6136 20.1236 89.892 20.1236C89.1676 20.1236 88.5341 19.9915 87.9915 19.7273C87.4489 19.4602 87.027 19.0881 86.7259 18.6108C86.4247 18.1335 86.2741 17.5767 86.2741 16.9403V11.2727H88.1193V16.7827C88.1193 17.1151 88.1918 17.4105 88.3366 17.669C88.4844 17.9276 88.6918 18.1307 88.9588 18.2784C89.2259 18.4261 89.5369 18.5 89.892 18.5C90.25 18.5 90.5611 18.4261 90.8253 18.2784C91.0923 18.1307 91.2983 17.9276 91.4432 17.669C91.5909 17.4105 91.6648 17.1151 91.6648 16.7827V11.2727ZM94.6957 12.794V11.2727H101.863V12.794H99.1914V20H97.3675V12.794H94.6957ZM105.821 11.2727H108.097L110.5 17.1364H110.602L113.006 11.2727H115.281V20H113.491V14.3196H113.419L111.161 19.9574H109.942L107.683 14.2983H107.611V20H105.821V11.2727ZM116.29 11.2727H118.357L120.347 15.0312H120.432L122.422 11.2727H124.489L121.306 16.9148V20H119.473V16.9148L116.29 11.2727ZM128.274 20V11.2727H134.053V12.794H130.119V14.8736H133.669V16.3949H130.119V20H128.274ZM135.294 20V11.2727H138.737C139.396 11.2727 139.958 11.3906 140.424 11.6264C140.893 11.8594 141.25 12.1903 141.494 12.6193C141.741 13.0455 141.865 13.5469 141.865 14.1236C141.865 14.7031 141.74 15.2017 141.49 15.6193C141.24 16.0341 140.877 16.3523 140.403 16.5739C139.931 16.7955 139.36 16.9062 138.69 16.9062H136.385V15.4233H138.392C138.744 15.4233 139.037 15.375 139.27 15.2784C139.502 15.1818 139.676 15.0369 139.789 14.8438C139.906 14.6506 139.964 14.4105 139.964 14.1236C139.964 13.8338 139.906 13.5895 139.789 13.3906C139.676 13.1918 139.501 13.0412 139.265 12.9389C139.032 12.8338 138.738 12.7812 138.383 12.7812H137.139V20H135.294ZM140.007 16.0284L142.176 20H140.139L138.017 16.0284H140.007ZM151.189 15.6364C151.189 16.5881 151.008 17.3977 150.647 18.0653C150.289 18.733 149.801 19.2429 149.181 19.5952C148.565 19.9446 147.872 20.1193 147.102 20.1193C146.326 20.1193 145.63 19.9432 145.014 19.5909C144.397 19.2386 143.91 18.7287 143.552 18.0611C143.194 17.3935 143.015 16.5852 143.015 15.6364C143.015 14.6847 143.194 13.875 143.552 13.2074C143.91 12.5398 144.397 12.0312 145.014 11.6818C145.63 11.3295 146.326 11.1534 147.102 11.1534C147.872 11.1534 148.565 11.3295 149.181 11.6818C149.801 12.0312 150.289 12.5398 150.647 13.2074C151.008 13.875 151.189 14.6847 151.189 15.6364ZM149.318 15.6364C149.318 15.0199 149.225 14.5 149.041 14.0767C148.859 13.6534 148.602 13.3324 148.27 13.1136C147.937 12.8949 147.548 12.7855 147.102 12.7855C146.656 12.7855 146.267 12.8949 145.934 13.1136C145.602 13.3324 145.343 13.6534 145.159 14.0767C144.977 14.5 144.886 15.0199 144.886 15.6364C144.886 16.2528 144.977 16.7727 145.159 17.196C145.343 17.6193 145.602 17.9403 145.934 18.1591C146.267 18.3778 146.656 18.4872 147.102 18.4872C147.548 18.4872 147.937 18.3778 148.27 18.1591C148.602 17.9403 148.859 17.6193 149.041 17.196C149.225 16.7727 149.318 16.2528 149.318 15.6364ZM159.855 11.2727V20H158.261L154.464 14.5071H154.401V20H152.555V11.2727H154.175L157.942 16.7614H158.018V11.2727H159.855ZM161.047 12.794V11.2727H168.215V12.794H165.543V20H163.719V12.794H161.047ZM169.395 20V11.2727H175.276V12.794H171.24V14.8736H174.973V16.3949H171.24V18.4787H175.293V20H169.395ZM184.043 11.2727V20H182.449L178.652 14.5071H178.588V20H176.743V11.2727H178.362L182.129 16.7614H182.206V11.2727H184.043ZM188.661 20H185.567V11.2727H188.686C189.564 11.2727 190.32 11.4474 190.953 11.7969C191.587 12.1435 192.074 12.642 192.415 13.2926C192.759 13.9432 192.931 14.7216 192.931 15.6278C192.931 16.5369 192.759 17.3182 192.415 17.9716C192.074 18.625 191.584 19.1264 190.945 19.4759C190.309 19.8253 189.547 20 188.661 20ZM187.412 18.419H188.584C189.13 18.419 189.588 18.3224 189.961 18.1293C190.336 17.9332 190.617 17.6307 190.804 17.2216C190.995 16.8097 191.09 16.2784 191.09 15.6278C191.09 14.983 190.995 14.456 190.804 14.0469C190.617 13.6378 190.337 13.3366 189.965 13.1435C189.593 12.9503 189.134 12.8537 188.588 12.8537H187.412V18.419ZM197.075 20V11.2727H200.518C201.18 11.2727 201.744 11.3991 202.21 11.652C202.676 11.902 203.031 12.25 203.275 12.696C203.522 13.1392 203.646 13.6506 203.646 14.2301C203.646 14.8097 203.521 15.321 203.271 15.7642C203.021 16.2074 202.659 16.5526 202.184 16.7997C201.713 17.0469 201.142 17.1705 200.471 17.1705H198.277V15.6918H200.173C200.528 15.6918 200.821 15.6307 201.051 15.5085C201.284 15.3835 201.457 15.2116 201.571 14.9929C201.687 14.7713 201.745 14.517 201.745 14.2301C201.745 13.9403 201.687 13.6875 201.571 13.4716C201.457 13.2528 201.284 13.0838 201.051 12.9645C200.818 12.8423 200.522 12.7812 200.164 12.7812H198.92V20H197.075ZM204.844 20V11.2727H208.288C208.947 11.2727 209.509 11.3906 209.975 11.6264C210.444 11.8594 210.8 12.1903 211.045 12.6193C211.292 13.0455 211.415 13.5469 211.415 14.1236C211.415 14.7031 211.29 15.2017 211.04 15.6193C210.79 16.0341 210.428 16.3523 209.954 16.5739C209.482 16.7955 208.911 16.9062 208.241 16.9062H205.935V15.4233H207.942C208.295 15.4233 208.587 15.375 208.82 15.2784C209.053 15.1818 209.227 15.0369 209.34 14.8438C209.457 14.6506 209.515 14.4105 209.515 14.1236C209.515 13.8338 209.457 13.5895 209.34 13.3906C209.227 13.1918 209.052 13.0412 208.816 12.9389C208.583 12.8338 208.289 12.7812 207.934 12.7812H206.69V20H204.844ZM209.558 16.0284L211.727 20H209.69L207.567 16.0284H209.558ZM220.739 15.6364C220.739 16.5881 220.559 17.3977 220.198 18.0653C219.84 18.733 219.352 19.2429 218.732 19.5952C218.116 19.9446 217.423 20.1193 216.653 20.1193C215.877 20.1193 215.181 19.9432 214.565 19.5909C213.948 19.2386 213.461 18.7287 213.103 18.0611C212.745 17.3935 212.566 16.5852 212.566 15.6364C212.566 14.6847 212.745 13.875 213.103 13.2074C213.461 12.5398 213.948 12.0312 214.565 11.6818C215.181 11.3295 215.877 11.1534 216.653 11.1534C217.423 11.1534 218.116 11.3295 218.732 11.6818C219.352 12.0312 219.84 12.5398 220.198 13.2074C220.559 13.875 220.739 14.6847 220.739 15.6364ZM218.869 15.6364C218.869 15.0199 218.776 14.5 218.592 14.0767C218.41 13.6534 218.153 13.3324 217.82 13.1136C217.488 12.8949 217.099 12.7855 216.653 12.7855C216.207 12.7855 215.817 12.8949 215.485 13.1136C215.153 13.3324 214.894 13.6534 214.71 14.0767C214.528 14.5 214.437 15.0199 214.437 15.6364C214.437 16.2528 214.528 16.7727 214.71 17.196C214.894 17.6193 215.153 17.9403 215.485 18.1591C215.817 18.3778 216.207 18.4872 216.653 18.4872C217.099 18.4872 217.488 18.3778 217.82 18.1591C218.153 17.9403 218.41 17.6193 218.592 17.196C218.776 16.7727 218.869 16.2528 218.869 15.6364ZM225.6 11.2727H227.424V17.358C227.424 17.9205 227.298 18.4091 227.045 18.8239C226.795 19.2386 226.447 19.5582 226.001 19.7827C225.555 20.0071 225.037 20.1193 224.446 20.1193C223.92 20.1193 223.443 20.027 223.014 19.8423C222.588 19.6548 222.25 19.3707 222 18.9901C221.75 18.6065 221.626 18.125 221.629 17.5455H223.466C223.471 17.7756 223.518 17.973 223.606 18.1378C223.697 18.2997 223.821 18.4247 223.977 18.5128C224.136 18.598 224.324 18.6406 224.539 18.6406C224.767 18.6406 224.958 18.5923 225.115 18.4957C225.274 18.3963 225.395 18.2514 225.477 18.0611C225.559 17.8707 225.6 17.6364 225.6 17.358V11.2727ZM228.95 20V11.2727H234.831V12.794H230.795V14.8736H234.528V16.3949H230.795V18.4787H234.848V20H228.95ZM243.998 14.3281H242.131C242.097 14.0866 242.028 13.8722 241.923 13.6847C241.817 13.4943 241.683 13.3324 241.518 13.1989C241.353 13.0653 241.163 12.9631 240.947 12.892C240.734 12.821 240.502 12.7855 240.252 12.7855C239.8 12.7855 239.407 12.8977 239.072 13.1222C238.737 13.3437 238.477 13.6676 238.292 14.0938C238.107 14.517 238.015 15.0312 238.015 15.6364C238.015 16.2585 238.107 16.7812 238.292 17.2045C238.479 17.6278 238.741 17.9474 239.076 18.1634C239.411 18.3793 239.799 18.4872 240.239 18.4872C240.487 18.4872 240.715 18.4545 240.925 18.3892C241.138 18.3239 241.327 18.2287 241.492 18.1037C241.657 17.9759 241.793 17.821 241.901 17.6392C242.012 17.4574 242.089 17.25 242.131 17.017L243.998 17.0256C243.95 17.4261 243.829 17.8125 243.636 18.1847C243.445 18.554 243.188 18.8849 242.864 19.1776C242.543 19.4673 242.16 19.6974 241.714 19.8679C241.271 20.0355 240.769 20.1193 240.21 20.1193C239.431 20.1193 238.735 19.9432 238.121 19.5909C237.511 19.2386 237.028 18.7287 236.673 18.0611C236.32 17.3935 236.144 16.5852 236.144 15.6364C236.144 14.6847 236.323 13.875 236.681 13.2074C237.039 12.5398 237.525 12.0312 238.138 11.6818C238.752 11.3295 239.442 11.1534 240.21 11.1534C240.715 11.1534 241.184 11.2244 241.616 11.3665C242.05 11.5085 242.435 11.7159 242.771 11.9886C243.106 12.2585 243.379 12.5895 243.589 12.9815C243.802 13.3736 243.938 13.8224 243.998 14.3281ZM244.989 12.794V11.2727H252.156V12.794H249.484V20H247.661V12.794H244.989ZM258.071 13.7827C258.037 13.4389 257.891 13.1719 257.632 12.9815C257.374 12.7912 257.023 12.696 256.58 12.696C256.278 12.696 256.024 12.7386 255.817 12.8239C255.609 12.9062 255.45 13.0213 255.339 13.169C255.232 13.3168 255.178 13.4844 255.178 13.6719C255.172 13.8281 255.205 13.9645 255.276 14.081C255.349 14.1974 255.45 14.2983 255.578 14.3835C255.706 14.4659 255.854 14.5384 256.021 14.6009C256.189 14.6605 256.368 14.7116 256.558 14.7543L257.342 14.9418C257.723 15.027 258.072 15.1406 258.391 15.2827C258.709 15.4247 258.984 15.5994 259.217 15.8068C259.45 16.0142 259.631 16.2585 259.759 16.5398C259.889 16.821 259.956 17.1435 259.959 17.5071C259.956 18.0412 259.82 18.5043 259.55 18.8963C259.283 19.2855 258.896 19.5881 258.391 19.804C257.888 20.017 257.281 20.1236 256.571 20.1236C255.866 20.1236 255.253 20.0156 254.73 19.7997C254.21 19.5838 253.804 19.2642 253.511 18.8409C253.222 18.4148 253.07 17.8878 253.055 17.2599H254.841C254.861 17.5526 254.945 17.7969 255.092 17.9929C255.243 18.1861 255.443 18.3324 255.693 18.4318C255.946 18.5284 256.232 18.5767 256.55 18.5767C256.862 18.5767 257.134 18.5312 257.364 18.4403C257.597 18.3494 257.777 18.223 257.905 18.0611C258.033 17.8991 258.097 17.7131 258.097 17.5028C258.097 17.3068 258.038 17.142 257.922 17.0085C257.808 16.875 257.641 16.7614 257.419 16.6676C257.2 16.5739 256.932 16.4886 256.614 16.4119L255.663 16.1733C254.928 15.9943 254.347 15.7145 253.92 15.3338C253.494 14.9531 253.283 14.4403 253.286 13.7955C253.283 13.267 253.423 12.8054 253.707 12.4105C253.994 12.0156 254.388 11.7074 254.888 11.4858C255.388 11.2642 255.956 11.1534 256.592 11.1534C257.24 11.1534 257.805 11.2642 258.288 11.4858C258.774 11.7074 259.152 12.0156 259.422 12.4105C259.692 12.8054 259.831 13.2628 259.839 13.7827H258.071Z" fill="white"/>
<path d="M23.3333 14.3333C23.1565 14.3333 22.987 14.4036 22.8619 14.5286C22.7369 14.6536 22.6667 14.8232 22.6667 15V19C22.6667 19.1768 22.5964 19.3464 22.4714 19.4714C22.3464 19.5964 22.1768 19.6667 22 19.6667H14C13.8232 19.6667 13.6536 19.5964 13.5286 19.4714C13.4036 19.3464 13.3333 19.1768 13.3333 19V11C13.3333 10.8232 13.4036 10.6536 13.5286 10.5286C13.6536 10.4036 13.8232 10.3333 14 10.3333H18C18.1768 10.3333 18.3464 10.2631 18.4714 10.1381C18.5964 10.013 18.6667 9.84348 18.6667 9.66667C18.6667 9.48986 18.5964 9.32029 18.4714 9.19526C18.3464 9.07024 18.1768 9 18 9H14C13.4696 9 12.9609 9.21071 12.5858 9.58579C12.2107 9.96086 12 10.4696 12 11V19C12 19.5304 12.2107 20.0391 12.5858 20.4142C12.9609 20.7893 13.4696 21 14 21H22C22.5304 21 23.0391 20.7893 23.4142 20.4142C23.7893 20.0391 24 19.5304 24 19V15C24 14.8232 23.9298 14.6536 23.8047 14.5286C23.6797 14.4036 23.5101 14.3333 23.3333 14.3333Z" fill="white"/>
<path d="M21.3372 9.33333H22.3905L18.1972 13.52C18.1347 13.582 18.0851 13.6557 18.0513 13.7369C18.0174 13.8182 18 13.9053 18 13.9933C18 14.0813 18.0174 14.1685 18.0513 14.2497C18.0851 14.331 18.1347 14.4047 18.1972 14.4667C18.2592 14.5292 18.3329 14.5787 18.4141 14.6126C18.4954 14.6464 18.5825 14.6639 18.6705 14.6639C18.7585 14.6639 18.8457 14.6464 18.9269 14.6126C19.0082 14.5787 19.0819 14.5292 19.1439 14.4667L23.3372 10.28V11.3333C23.3372 11.5101 23.4074 11.6797 23.5325 11.8047C23.6575 11.9298 23.8271 12 24.0039 12C24.1807 12 24.3502 11.9298 24.4753 11.8047C24.6003 11.6797 24.6705 11.5101 24.6705 11.3333V8.66667C24.6705 8.48986 24.6003 8.32029 24.4753 8.19526C24.3502 8.07024 24.1807 8 24.0039 8H21.3372C21.1604 8 20.9908 8.07024 20.8658 8.19526C20.7408 8.32029 20.6705 8.48986 20.6705 8.66667C20.6705 8.84348 20.7408 9.01305 20.8658 9.13807C20.9908 9.2631 21.1604 9.33333 21.3372 9.33333Z" fill="white"/>
</svg>
