<svg width="242" height="30" viewBox="0 0 242 30" fill="none" xmlns="http://www.w3.org/2000/svg">
<rect width="242" height="30" fill="#20222D"/>
<path d="M42.5589 14.3281H40.6924C40.6583 14.0866 40.5887 13.8722 40.4836 13.6847C40.3785 13.4943 40.2436 13.3324 40.0788 13.1989C39.914 13.0653 39.7237 12.9631 39.5078 12.892C39.2947 12.821 39.0632 12.7855 38.8132 12.7855C38.3615 12.7855 37.968 12.8977 37.6328 13.1222C37.2975 13.3437 37.0376 13.6676 36.8529 14.0938C36.6683 14.517 36.576 15.0312 36.576 15.6364C36.576 16.2585 36.6683 16.7812 36.8529 17.2045C37.0404 17.6278 37.3018 17.9474 37.637 18.1634C37.9723 18.3793 38.36 18.4872 38.8004 18.4872C39.0475 18.4872 39.2762 18.4545 39.4865 18.3892C39.6995 18.3239 39.8885 18.2287 40.0532 18.1037C40.218 17.9759 40.3544 17.821 40.4623 17.6392C40.5731 17.4574 40.6498 17.25 40.6924 17.017L42.5589 17.0256C42.5106 17.4261 42.3899 17.8125 42.1967 18.1847C42.0063 18.554 41.7492 18.8849 41.4254 19.1776C41.1044 19.4673 40.7208 19.6974 40.2748 19.8679C39.8316 20.0355 39.3302 20.1193 38.7706 20.1193C37.9921 20.1193 37.2961 19.9432 36.6825 19.5909C36.0717 19.2386 35.5887 18.7287 35.2336 18.0611C34.8813 17.3935 34.7052 16.5852 34.7052 15.6364C34.7052 14.6847 34.8842 13.875 35.2421 13.2074C35.6001 12.5398 36.0859 12.0312 36.6995 11.6818C37.3132 11.3295 38.0035 11.1534 38.7706 11.1534C39.2762 11.1534 39.745 11.2244 40.1768 11.3665C40.6115 11.5085 40.9964 11.7159 41.3316 11.9886C41.6669 12.2585 41.9396 12.5895 42.1498 12.9815C42.3629 13.3736 42.4992 13.8224 42.5589 14.3281ZM43.8821 20V11.2727H45.7272V14.8736H49.473V11.2727H51.3139V20H49.473V16.3949H45.7272V20H43.8821ZM52.8352 20V11.2727H58.7159V12.794H54.6804V14.8736H58.4133V16.3949H54.6804V18.4787H58.7329V20H52.8352ZM67.8831 14.3281H66.0166C65.9826 14.0866 65.913 13.8722 65.8078 13.6847C65.7027 13.4943 65.5678 13.3324 65.403 13.1989C65.2382 13.0653 65.0479 12.9631 64.832 12.892C64.6189 12.821 64.3874 12.7855 64.1374 12.7855C63.6857 12.7855 63.2922 12.8977 62.957 13.1222C62.6218 13.3437 62.3618 13.6676 62.1772 14.0938C61.9925 14.517 61.9002 15.0312 61.9002 15.6364C61.9002 16.2585 61.9925 16.7812 62.1772 17.2045C62.3647 17.6278 62.626 17.9474 62.9612 18.1634C63.2965 18.3793 63.6843 18.4872 64.1246 18.4872C64.3718 18.4872 64.6005 18.4545 64.8107 18.3892C65.0237 18.3239 65.2127 18.2287 65.3774 18.1037C65.5422 17.9759 65.6786 17.821 65.7865 17.6392C65.8973 17.4574 65.974 17.25 66.0166 17.017L67.8831 17.0256C67.8348 17.4261 67.7141 17.8125 67.5209 18.1847C67.3306 18.554 67.0735 18.8849 66.7496 19.1776C66.4286 19.4673 66.0451 19.6974 65.599 19.8679C65.1559 20.0355 64.6544 20.1193 64.0948 20.1193C63.3164 20.1193 62.6203 19.9432 62.0067 19.5909C61.3959 19.2386 60.913 18.7287 60.5578 18.0611C60.2056 17.3935 60.0294 16.5852 60.0294 15.6364C60.0294 14.6847 60.2084 13.875 60.5664 13.2074C60.9243 12.5398 61.4101 12.0312 62.0237 11.6818C62.6374 11.3295 63.3277 11.1534 64.0948 11.1534C64.6005 11.1534 65.0692 11.2244 65.501 11.3665C65.9357 11.5085 66.3206 11.7159 66.6559 11.9886C66.9911 12.2585 67.2638 12.5895 67.474 12.9815C67.6871 13.3736 67.8235 13.8224 67.8831 14.3281ZM69.2063 20V11.2727H71.0514V15.1207H71.1665L74.3071 11.2727H76.5188L73.2801 15.1804L76.5571 20H74.3497L71.9591 16.4119L71.0514 17.5199V20H69.2063ZM85.0074 15.6364C85.0074 16.5881 84.827 17.3977 84.4662 18.0653C84.1083 18.733 83.6196 19.2429 83.0003 19.5952C82.3838 19.9446 81.6907 20.1193 80.9208 20.1193C80.1452 20.1193 79.4492 19.9432 78.8327 19.5909C78.2162 19.2386 77.729 18.7287 77.371 18.0611C77.0131 17.3935 76.8341 16.5852 76.8341 15.6364C76.8341 14.6847 77.0131 13.875 77.371 13.2074C77.729 12.5398 78.2162 12.0312 78.8327 11.6818C79.4492 11.3295 80.1452 11.1534 80.9208 11.1534C81.6907 11.1534 82.3838 11.3295 83.0003 11.6818C83.6196 12.0312 84.1083 12.5398 84.4662 13.2074C84.827 13.875 85.0074 14.6847 85.0074 15.6364ZM83.1367 15.6364C83.1367 15.0199 83.0443 14.5 82.8597 14.0767C82.6779 13.6534 82.4208 13.3324 82.0884 13.1136C81.756 12.8949 81.3668 12.7855 80.9208 12.7855C80.4747 12.7855 80.0855 12.8949 79.7532 13.1136C79.4208 13.3324 79.1622 13.6534 78.9776 14.0767C78.7958 14.5 78.7049 15.0199 78.7049 15.6364C78.7049 16.2528 78.7958 16.7727 78.9776 17.196C79.1622 17.6193 79.4208 17.9403 79.7532 18.1591C80.0855 18.3778 80.4747 18.4872 80.9208 18.4872C81.3668 18.4872 81.756 18.3778 82.0884 18.1591C82.4208 17.9403 82.6779 17.6193 82.8597 17.196C83.0443 16.7727 83.1367 16.2528 83.1367 15.6364ZM91.7649 11.2727H93.61V16.9403C93.61 17.5767 93.4581 18.1335 93.1541 18.6108C92.8529 19.0881 92.4311 19.4602 91.8885 19.7273C91.3458 19.9915 90.7137 20.1236 89.9921 20.1236C89.2677 20.1236 88.6342 19.9915 88.0916 19.7273C87.549 19.4602 87.1271 19.0881 86.8259 18.6108C86.5248 18.1335 86.3742 17.5767 86.3742 16.9403V11.2727H88.2194V16.7827C88.2194 17.1151 88.2919 17.4105 88.4367 17.669C88.5845 17.9276 88.7919 18.1307 89.0589 18.2784C89.3259 18.4261 89.637 18.5 89.9921 18.5C90.3501 18.5 90.6612 18.4261 90.9254 18.2784C91.1924 18.1307 91.3984 17.9276 91.5433 17.669C91.691 17.4105 91.7649 17.1151 91.7649 16.7827V11.2727ZM94.7958 12.794V11.2727H101.963V12.794H99.2915V20H97.4676V12.794H94.7958ZM105.921 11.2727H108.197L110.6 17.1364H110.702L113.106 11.2727H115.381V20H113.592V14.3196H113.519L111.261 19.9574H110.042L107.783 14.2983H107.711V20H105.921V11.2727ZM116.39 11.2727H118.457L120.447 15.0312H120.532L122.522 11.2727H124.589L121.406 16.9148V20H119.573V16.9148L116.39 11.2727ZM128.374 11.2727H130.65L133.053 17.1364H133.155L135.559 11.2727H137.834V20H136.045V14.3196H135.972L133.714 19.9574H132.495L130.236 14.2983H130.164V20H128.374V11.2727ZM147.375 15.6364C147.375 16.5881 147.194 17.3977 146.833 18.0653C146.475 18.733 145.987 19.2429 145.367 19.5952C144.751 19.9446 144.058 20.1193 143.288 20.1193C142.512 20.1193 141.816 19.9432 141.2 19.5909C140.583 19.2386 140.096 18.7287 139.738 18.0611C139.38 17.3935 139.201 16.5852 139.201 15.6364C139.201 14.6847 139.38 13.875 139.738 13.2074C140.096 12.5398 140.583 12.0312 141.2 11.6818C141.816 11.3295 142.512 11.1534 143.288 11.1534C144.058 11.1534 144.751 11.3295 145.367 11.6818C145.987 12.0312 146.475 12.5398 146.833 13.2074C147.194 13.875 147.375 14.6847 147.375 15.6364ZM145.504 15.6364C145.504 15.0199 145.412 14.5 145.227 14.0767C145.045 13.6534 144.788 13.3324 144.456 13.1136C144.123 12.8949 143.734 12.7855 143.288 12.7855C142.842 12.7855 142.453 12.8949 142.12 13.1136C141.788 13.3324 141.529 13.6534 141.345 14.0767C141.163 14.5 141.072 15.0199 141.072 15.6364C141.072 16.2528 141.163 16.7727 141.345 17.196C141.529 17.6193 141.788 17.9403 142.12 18.1591C142.453 18.3778 142.842 18.4872 143.288 18.4872C143.734 18.4872 144.123 18.3778 144.456 18.1591C144.788 17.9403 145.045 17.6193 145.227 17.196C145.412 16.7727 145.504 16.2528 145.504 15.6364ZM148.741 20V11.2727H152.185C152.844 11.2727 153.406 11.3906 153.872 11.6264C154.341 11.8594 154.697 12.1903 154.942 12.6193C155.189 13.0455 155.312 13.5469 155.312 14.1236C155.312 14.7031 155.187 15.2017 154.937 15.6193C154.687 16.0341 154.325 16.3523 153.851 16.5739C153.379 16.7955 152.808 16.9062 152.138 16.9062H149.832V15.4233H151.839C152.192 15.4233 152.484 15.375 152.717 15.2784C152.95 15.1818 153.124 15.0369 153.237 14.8438C153.354 14.6506 153.412 14.4105 153.412 14.1236C153.412 13.8338 153.354 13.5895 153.237 13.3906C153.124 13.1918 152.949 13.0412 152.713 12.9389C152.48 12.8338 152.186 12.7812 151.831 12.7812H150.587V20H148.741ZM153.455 16.0284L155.624 20H153.587L151.464 16.0284H153.455ZM156.616 20V11.2727H162.497V12.794H158.462V14.8736H162.195V16.3949H158.462V18.4787H162.514V20H156.616ZM166.741 20V11.2727H170.185C170.847 11.2727 171.41 11.3991 171.876 11.652C172.342 11.902 172.697 12.25 172.942 12.696C173.189 13.1392 173.312 13.6506 173.312 14.2301C173.312 14.8097 173.187 15.321 172.937 15.7642C172.687 16.2074 172.325 16.5526 171.851 16.7997C171.379 17.0469 170.808 17.1705 170.138 17.1705H167.943V15.6918H169.839C170.195 15.6918 170.487 15.6307 170.717 15.5085C170.95 15.3835 171.124 15.2116 171.237 14.9929C171.354 14.7713 171.412 14.517 171.412 14.2301C171.412 13.9403 171.354 13.6875 171.237 13.4716C171.124 13.2528 170.95 13.0838 170.717 12.9645C170.484 12.8423 170.189 12.7812 169.831 12.7812H168.587V20H166.741ZM174.511 20V11.2727H177.954C178.613 11.2727 179.176 11.3906 179.642 11.6264C180.11 11.8594 180.467 12.1903 180.711 12.6193C180.958 13.0455 181.082 13.5469 181.082 14.1236C181.082 14.7031 180.957 15.2017 180.707 15.6193C180.457 16.0341 180.095 16.3523 179.62 16.5739C179.149 16.7955 178.578 16.9062 177.907 16.9062H175.602V15.4233H177.609C177.961 15.4233 178.254 15.375 178.487 15.2784C178.72 15.1818 178.893 15.0369 179.007 14.8438C179.123 14.6506 179.181 14.4105 179.181 14.1236C179.181 13.8338 179.123 13.5895 179.007 13.3906C178.893 13.1918 178.718 13.0412 178.483 12.9389C178.25 12.8338 177.956 12.7812 177.6 12.7812H176.356V20H174.511ZM179.224 16.0284L181.393 20H179.356L177.234 16.0284H179.224ZM190.406 15.6364C190.406 16.5881 190.225 17.3977 189.865 18.0653C189.507 18.733 189.018 19.2429 188.399 19.5952C187.782 19.9446 187.089 20.1193 186.319 20.1193C185.544 20.1193 184.848 19.9432 184.231 19.5909C183.615 19.2386 183.127 18.7287 182.769 18.0611C182.412 17.3935 182.233 16.5852 182.233 15.6364C182.233 14.6847 182.412 13.875 182.769 13.2074C183.127 12.5398 183.615 12.0312 184.231 11.6818C184.848 11.3295 185.544 11.1534 186.319 11.1534C187.089 11.1534 187.782 11.3295 188.399 11.6818C189.018 12.0312 189.507 12.5398 189.865 13.2074C190.225 13.875 190.406 14.6847 190.406 15.6364ZM188.535 15.6364C188.535 15.0199 188.443 14.5 188.258 14.0767C188.076 13.6534 187.819 13.3324 187.487 13.1136C187.154 12.8949 186.765 12.7855 186.319 12.7855C185.873 12.7855 185.484 12.8949 185.152 13.1136C184.819 13.3324 184.561 13.6534 184.376 14.0767C184.194 14.5 184.103 15.0199 184.103 15.6364C184.103 16.2528 184.194 16.7727 184.376 17.196C184.561 17.6193 184.819 17.9403 185.152 18.1591C185.484 18.3778 185.873 18.4872 186.319 18.4872C186.765 18.4872 187.154 18.3778 187.487 18.1591C187.819 17.9403 188.076 17.6193 188.258 17.196C188.443 16.7727 188.535 16.2528 188.535 15.6364ZM195.267 11.2727H197.091V17.358C197.091 17.9205 196.964 18.4091 196.712 18.8239C196.462 19.2386 196.114 19.5582 195.668 19.7827C195.222 20.0071 194.703 20.1193 194.112 20.1193C193.587 20.1193 193.109 20.027 192.68 19.8423C192.254 19.6548 191.916 19.3707 191.666 18.9901C191.416 18.6065 191.293 18.125 191.295 17.5455H193.132C193.138 17.7756 193.185 17.973 193.273 18.1378C193.364 18.2997 193.487 18.4247 193.643 18.5128C193.803 18.598 193.99 18.6406 194.206 18.6406C194.433 18.6406 194.625 18.5923 194.781 18.4957C194.94 18.3963 195.061 18.2514 195.143 18.0611C195.226 17.8707 195.267 17.6364 195.267 17.358V11.2727ZM198.616 20V11.2727H204.497V12.794H200.462V14.8736H204.195V16.3949H200.462V18.4787H204.514V20H198.616ZM213.664 14.3281H211.798C211.764 14.0866 211.694 13.8722 211.589 13.6847C211.484 13.4943 211.349 13.3324 211.184 13.1989C211.019 13.0653 210.829 12.9631 210.613 12.892C210.4 12.821 210.169 12.7855 209.919 12.7855C209.467 12.7855 209.073 12.8977 208.738 13.1222C208.403 13.3437 208.143 13.6676 207.958 14.0938C207.774 14.517 207.681 15.0312 207.681 15.6364C207.681 16.2585 207.774 16.7812 207.958 17.2045C208.146 17.6278 208.407 17.9474 208.742 18.1634C209.078 18.3793 209.466 18.4872 209.906 18.4872C210.153 18.4872 210.382 18.4545 210.592 18.3892C210.805 18.3239 210.994 18.2287 211.159 18.1037C211.323 17.9759 211.46 17.821 211.568 17.6392C211.679 17.4574 211.755 17.25 211.798 17.017L213.664 17.0256C213.616 17.4261 213.495 17.8125 213.302 18.1847C213.112 18.554 212.855 18.8849 212.531 19.1776C212.21 19.4673 211.826 19.6974 211.38 19.8679C210.937 20.0355 210.436 20.1193 209.876 20.1193C209.098 20.1193 208.402 19.9432 207.788 19.5909C207.177 19.2386 206.694 18.7287 206.339 18.0611C205.987 17.3935 205.811 16.5852 205.811 15.6364C205.811 14.6847 205.99 13.875 206.348 13.2074C206.706 12.5398 207.191 12.0312 207.805 11.6818C208.419 11.3295 209.109 11.1534 209.876 11.1534C210.382 11.1534 210.85 11.2244 211.282 11.3665C211.717 11.5085 212.102 11.7159 212.437 11.9886C212.772 12.2585 213.045 12.5895 213.255 12.9815C213.468 13.3736 213.605 13.8224 213.664 14.3281ZM214.655 12.794V11.2727H221.823V12.794H219.151V20H217.327V12.794H214.655ZM227.738 13.7827C227.703 13.4389 227.557 13.1719 227.299 12.9815C227.04 12.7912 226.689 12.696 226.246 12.696C225.945 12.696 225.691 12.7386 225.483 12.8239C225.276 12.9062 225.117 13.0213 225.006 13.169C224.898 13.3168 224.844 13.4844 224.844 13.6719C224.838 13.8281 224.871 13.9645 224.942 14.081C225.016 14.1974 225.117 14.2983 225.245 14.3835C225.372 14.4659 225.52 14.5384 225.688 14.6009C225.855 14.6605 226.034 14.7116 226.225 14.7543L227.009 14.9418C227.39 15.027 227.739 15.1406 228.057 15.2827C228.375 15.4247 228.651 15.5994 228.884 15.8068C229.117 16.0142 229.297 16.2585 229.425 16.5398C229.556 16.821 229.622 17.1435 229.625 17.5071C229.622 18.0412 229.486 18.5043 229.216 18.8963C228.949 19.2855 228.563 19.5881 228.057 19.804C227.554 20.017 226.948 20.1236 226.238 20.1236C225.533 20.1236 224.919 20.0156 224.397 19.7997C223.877 19.5838 223.47 19.2642 223.178 18.8409C222.888 18.4148 222.736 17.8878 222.722 17.2599H224.507C224.527 17.5526 224.611 17.7969 224.759 17.9929C224.909 18.1861 225.11 18.3324 225.36 18.4318C225.613 18.5284 225.898 18.5767 226.216 18.5767C226.529 18.5767 226.8 18.5312 227.03 18.4403C227.263 18.3494 227.443 18.223 227.571 18.0611C227.699 17.8991 227.763 17.7131 227.763 17.5028C227.763 17.3068 227.705 17.142 227.588 17.0085C227.475 16.875 227.307 16.7614 227.086 16.6676C226.867 16.5739 226.598 16.4886 226.28 16.4119L225.33 16.1733C224.594 15.9943 224.013 15.7145 223.587 15.3338C223.161 14.9531 222.949 14.4403 222.952 13.7955C222.949 13.267 223.09 12.8054 223.374 12.4105C223.661 12.0156 224.054 11.7074 224.554 11.4858C225.054 11.2642 225.622 11.1534 226.259 11.1534C226.907 11.1534 227.472 11.2642 227.955 11.4858C228.441 11.7074 228.818 12.0156 229.088 12.4105C229.358 12.8054 229.497 13.2628 229.506 13.7827H227.738Z" fill="white"/>
<path d="M23.3889 14.3333C23.2113 14.3333 23.041 14.4036 22.9155 14.5286C22.7899 14.6536 22.7194 14.8232 22.7194 15V19C22.7194 19.1768 22.6489 19.3464 22.5233 19.4714C22.3978 19.5964 22.2275 19.6667 22.05 19.6667H14.0166C13.8391 19.6667 13.6688 19.5964 13.5433 19.4714C13.4177 19.3464 13.3472 19.1768 13.3472 19V11C13.3472 10.8232 13.4177 10.6536 13.5433 10.5286C13.6688 10.4036 13.8391 10.3333 14.0166 10.3333H18.0333C18.2108 10.3333 18.3811 10.2631 18.5067 10.1381C18.6322 10.013 18.7027 9.84348 18.7027 9.66667C18.7027 9.48986 18.6322 9.32029 18.5067 9.19526C18.3811 9.07024 18.2108 9 18.0333 9H14.0166C13.484 9 12.9732 9.21071 12.5965 9.58579C12.2199 9.96086 12.0083 10.4696 12.0083 11V19C12.0083 19.5304 12.2199 20.0391 12.5965 20.4142C12.9732 20.7893 13.484 21 14.0166 21H22.05C22.5826 21 23.0934 20.7893 23.4701 20.4142C23.8467 20.0391 24.0583 19.5304 24.0583 19V15C24.0583 14.8232 23.9878 14.6536 23.8622 14.5286C23.7367 14.4036 23.5664 14.3333 23.3889 14.3333Z" fill="white"/>
<path d="M21.3844 9.33333H22.4422L18.2313 13.52C18.1686 13.582 18.1188 13.6557 18.0848 13.7369C18.0508 13.8182 18.0333 13.9053 18.0333 13.9933C18.0333 14.0813 18.0508 14.1685 18.0848 14.2497C18.1188 14.331 18.1686 14.4047 18.2313 14.4667C18.2936 14.5292 18.3676 14.5787 18.4492 14.6126C18.5308 14.6464 18.6183 14.6639 18.7067 14.6639C18.795 14.6639 18.8825 14.6464 18.9641 14.6126C19.0457 14.5787 19.1197 14.5292 19.182 14.4667L23.3928 10.28V11.3333C23.3928 11.5101 23.4633 11.6797 23.5888 11.8047C23.7144 11.9298 23.8847 12 24.0622 12C24.2398 12 24.41 11.9298 24.5356 11.8047C24.6611 11.6797 24.7317 11.5101 24.7317 11.3333V8.66667C24.7317 8.48986 24.6611 8.32029 24.5356 8.19526C24.41 8.07024 24.2398 8 24.0622 8H21.3844C21.2069 8 21.0366 8.07024 20.9111 8.19526C20.7855 8.32029 20.715 8.48986 20.715 8.66667C20.715 8.84348 20.7855 9.01305 20.9111 9.13807C21.0366 9.2631 21.2069 9.33333 21.3844 9.33333Z" fill="white"/>
</svg>
