<svg width="262" height="30" viewBox="0 0 262 30" fill="none" xmlns="http://www.w3.org/2000/svg">
<rect width="262" height="30" fill="#20222D"/>
<path d="M42.4588 14.3281H40.5923C40.5582 14.0866 40.4886 13.8722 40.3835 13.6847C40.2784 13.4943 40.1435 13.3324 39.9787 13.1989C39.8139 13.0653 39.6236 12.9631 39.4077 12.892C39.1946 12.821 38.9631 12.7855 38.7131 12.7855C38.2614 12.7855 37.8679 12.8977 37.5327 13.1222C37.1974 13.3437 36.9375 13.6676 36.7528 14.0938C36.5682 14.517 36.4759 15.0312 36.4759 15.6364C36.4759 16.2585 36.5682 16.7812 36.7528 17.2045C36.9403 17.6278 37.2017 17.9474 37.5369 18.1634C37.8722 18.3793 38.2599 18.4872 38.7003 18.4872C38.9474 18.4872 39.1761 18.4545 39.3864 18.3892C39.5994 18.3239 39.7884 18.2287 39.9531 18.1037C40.1179 17.9759 40.2543 17.821 40.3622 17.6392C40.473 17.4574 40.5497 17.25 40.5923 17.017L42.4588 17.0256C42.4105 17.4261 42.2898 17.8125 42.0966 18.1847C41.9063 18.554 41.6491 18.8849 41.3253 19.1776C41.0043 19.4673 40.6207 19.6974 40.1747 19.8679C39.7315 20.0355 39.2301 20.1193 38.6705 20.1193C37.892 20.1193 37.196 19.9432 36.5824 19.5909C35.9716 19.2386 35.4886 18.7287 35.1335 18.0611C34.7812 17.3935 34.6051 16.5852 34.6051 15.6364C34.6051 14.6847 34.7841 13.875 35.142 13.2074C35.5 12.5398 35.9858 12.0312 36.5994 11.6818C37.2131 11.3295 37.9034 11.1534 38.6705 11.1534C39.1761 11.1534 39.6449 11.2244 40.0767 11.3665C40.5114 11.5085 40.8963 11.7159 41.2315 11.9886C41.5668 12.2585 41.8395 12.5895 42.0497 12.9815C42.2628 13.3736 42.3991 13.8224 42.4588 14.3281ZM43.782 20V11.2727H45.6271V14.8736H49.3729V11.2727H51.2138V20H49.3729V16.3949H45.6271V20H43.782ZM52.7351 20V11.2727H58.6158V12.794H54.5803V14.8736H58.3132V16.3949H54.5803V18.4787H58.6328V20H52.7351ZM67.783 14.3281H65.9165C65.8825 14.0866 65.8129 13.8722 65.7077 13.6847C65.6026 13.4943 65.4677 13.3324 65.3029 13.1989C65.1381 13.0653 64.9478 12.9631 64.7319 12.892C64.5188 12.821 64.2873 12.7855 64.0373 12.7855C63.5856 12.7855 63.1921 12.8977 62.8569 13.1222C62.5217 13.3437 62.2617 13.6676 62.0771 14.0938C61.8924 14.517 61.8001 15.0312 61.8001 15.6364C61.8001 16.2585 61.8924 16.7812 62.0771 17.2045C62.2646 17.6278 62.5259 17.9474 62.8612 18.1634C63.1964 18.3793 63.5842 18.4872 64.0245 18.4872C64.2717 18.4872 64.5004 18.4545 64.7106 18.3892C64.9237 18.3239 65.1126 18.2287 65.2773 18.1037C65.4421 17.9759 65.5785 17.821 65.6864 17.6392C65.7972 17.4574 65.8739 17.25 65.9165 17.017L67.783 17.0256C67.7347 17.4261 67.614 17.8125 67.4208 18.1847C67.2305 18.554 66.9734 18.8849 66.6495 19.1776C66.3285 19.4673 65.945 19.6974 65.4989 19.8679C65.0558 20.0355 64.5543 20.1193 63.9947 20.1193C63.2163 20.1193 62.5202 19.9432 61.9066 19.5909C61.2958 19.2386 60.8129 18.7287 60.4577 18.0611C60.1055 17.3935 59.9293 16.5852 59.9293 15.6364C59.9293 14.6847 60.1083 13.875 60.4663 13.2074C60.8242 12.5398 61.31 12.0312 61.9237 11.6818C62.5373 11.3295 63.2276 11.1534 63.9947 11.1534C64.5004 11.1534 64.9691 11.2244 65.4009 11.3665C65.8356 11.5085 66.2205 11.7159 66.5558 11.9886C66.891 12.2585 67.1637 12.5895 67.3739 12.9815C67.587 13.3736 67.7234 13.8224 67.783 14.3281ZM69.1062 20V11.2727H70.9513V15.1207H71.0664L74.207 11.2727H76.4187L73.18 15.1804L76.457 20H74.2496L71.859 16.4119L70.9513 17.5199V20H69.1062ZM84.9073 15.6364C84.9073 16.5881 84.7269 17.3977 84.3661 18.0653C84.0082 18.733 83.5195 19.2429 82.9002 19.5952C82.2837 19.9446 81.5906 20.1193 80.8207 20.1193C80.0451 20.1193 79.3491 19.9432 78.7326 19.5909C78.1161 19.2386 77.6289 18.7287 77.271 18.0611C76.913 17.3935 76.734 16.5852 76.734 15.6364C76.734 14.6847 76.913 13.875 77.271 13.2074C77.6289 12.5398 78.1161 12.0312 78.7326 11.6818C79.3491 11.3295 80.0451 11.1534 80.8207 11.1534C81.5906 11.1534 82.2837 11.3295 82.9002 11.6818C83.5195 12.0312 84.0082 12.5398 84.3661 13.2074C84.7269 13.875 84.9073 14.6847 84.9073 15.6364ZM83.0366 15.6364C83.0366 15.0199 82.9442 14.5 82.7596 14.0767C82.5778 13.6534 82.3207 13.3324 81.9883 13.1136C81.6559 12.8949 81.2667 12.7855 80.8207 12.7855C80.3746 12.7855 79.9854 12.8949 79.6531 13.1136C79.3207 13.3324 79.0621 13.6534 78.8775 14.0767C78.6957 14.5 78.6048 15.0199 78.6048 15.6364C78.6048 16.2528 78.6957 16.7727 78.8775 17.196C79.0621 17.6193 79.3207 17.9403 79.6531 18.1591C79.9854 18.3778 80.3746 18.4872 80.8207 18.4872C81.2667 18.4872 81.6559 18.3778 81.9883 18.1591C82.3207 17.9403 82.5778 17.6193 82.7596 17.196C82.9442 16.7727 83.0366 16.2528 83.0366 15.6364ZM91.6648 11.2727H93.5099V16.9403C93.5099 17.5767 93.358 18.1335 93.054 18.6108C92.7528 19.0881 92.331 19.4602 91.7884 19.7273C91.2457 19.9915 90.6136 20.1236 89.892 20.1236C89.1676 20.1236 88.5341 19.9915 87.9915 19.7273C87.4489 19.4602 87.027 19.0881 86.7259 18.6108C86.4247 18.1335 86.2741 17.5767 86.2741 16.9403V11.2727H88.1193V16.7827C88.1193 17.1151 88.1918 17.4105 88.3366 17.669C88.4844 17.9276 88.6918 18.1307 88.9588 18.2784C89.2259 18.4261 89.5369 18.5 89.892 18.5C90.25 18.5 90.5611 18.4261 90.8253 18.2784C91.0923 18.1307 91.2983 17.9276 91.4432 17.669C91.5909 17.4105 91.6648 17.1151 91.6648 16.7827V11.2727ZM94.6957 12.794V11.2727H101.863V12.794H99.1914V20H97.3675V12.794H94.6957ZM110.555 13.7827C110.521 13.4389 110.375 13.1719 110.116 12.9815C109.858 12.7912 109.507 12.696 109.064 12.696C108.763 12.696 108.509 12.7386 108.301 12.8239C108.094 12.9062 107.935 13.0213 107.824 13.169C107.716 13.3168 107.662 13.4844 107.662 13.6719C107.656 13.8281 107.689 13.9645 107.76 14.081C107.834 14.1974 107.935 14.2983 108.062 14.3835C108.19 14.4659 108.338 14.5384 108.506 14.6009C108.673 14.6605 108.852 14.7116 109.043 14.7543L109.827 14.9418C110.207 15.027 110.557 15.1406 110.875 15.2827C111.193 15.4247 111.469 15.5994 111.702 15.8068C111.935 16.0142 112.115 16.2585 112.243 16.5398C112.374 16.821 112.44 17.1435 112.443 17.5071C112.44 18.0412 112.304 18.5043 112.034 18.8963C111.767 19.2855 111.381 19.5881 110.875 19.804C110.372 20.017 109.766 20.1236 109.055 20.1236C108.351 20.1236 107.737 20.0156 107.214 19.7997C106.695 19.5838 106.288 19.2642 105.996 18.8409C105.706 18.4148 105.554 17.8878 105.54 17.2599H107.325C107.345 17.5526 107.429 17.7969 107.577 17.9929C107.727 18.1861 107.928 18.3324 108.178 18.4318C108.43 18.5284 108.716 18.5767 109.034 18.5767C109.347 18.5767 109.618 18.5312 109.848 18.4403C110.081 18.3494 110.261 18.223 110.389 18.0611C110.517 17.8991 110.581 17.7131 110.581 17.5028C110.581 17.3068 110.523 17.142 110.406 17.0085C110.293 16.875 110.125 16.7614 109.903 16.6676C109.685 16.5739 109.416 16.4886 109.098 16.4119L108.148 16.1733C107.412 15.9943 106.831 15.7145 106.405 15.3338C105.979 14.9531 105.767 14.4403 105.77 13.7955C105.767 13.267 105.908 12.8054 106.192 12.4105C106.479 12.0156 106.872 11.7074 107.372 11.4858C107.872 11.2642 108.44 11.1534 109.077 11.1534C109.724 11.1534 110.29 11.2642 110.773 11.4858C111.259 11.7074 111.636 12.0156 111.906 12.4105C112.176 12.8054 112.315 13.2628 112.324 13.7827H110.555ZM121.704 15.6364C121.704 16.5881 121.524 17.3977 121.163 18.0653C120.805 18.733 120.316 19.2429 119.697 19.5952C119.081 19.9446 118.387 20.1193 117.618 20.1193C116.842 20.1193 116.146 19.9432 115.529 19.5909C114.913 19.2386 114.426 18.7287 114.068 18.0611C113.71 17.3935 113.531 16.5852 113.531 15.6364C113.531 14.6847 113.71 13.875 114.068 13.2074C114.426 12.5398 114.913 12.0312 115.529 11.6818C116.146 11.3295 116.842 11.1534 117.618 11.1534C118.387 11.1534 119.081 11.3295 119.697 11.6818C120.316 12.0312 120.805 12.5398 121.163 13.2074C121.524 13.875 121.704 14.6847 121.704 15.6364ZM119.833 15.6364C119.833 15.0199 119.741 14.5 119.556 14.0767C119.375 13.6534 119.118 13.3324 118.785 13.1136C118.453 12.8949 118.064 12.7855 117.618 12.7855C117.172 12.7855 116.782 12.8949 116.45 13.1136C116.118 13.3324 115.859 13.6534 115.674 14.0767C115.493 14.5 115.402 15.0199 115.402 15.6364C115.402 16.2528 115.493 16.7727 115.674 17.196C115.859 17.6193 116.118 17.9403 116.45 18.1591C116.782 18.3778 117.172 18.4872 117.618 18.4872C118.064 18.4872 118.453 18.3778 118.785 18.1591C119.118 17.9403 119.375 17.6193 119.556 17.196C119.741 16.7727 119.833 16.2528 119.833 15.6364ZM123.071 11.2727H125.347L127.75 17.1364H127.852L130.256 11.2727H132.531V20H130.741V14.3196H130.669L128.411 19.9574H127.192L124.933 14.2983H124.861V20H123.071V11.2727ZM134.051 20V11.2727H139.932V12.794H135.897V14.8736H139.63V16.3949H135.897V18.4787H139.949V20H134.051ZM152.196 15.6364C152.196 16.5881 152.016 17.3977 151.655 18.0653C151.297 18.733 150.809 19.2429 150.189 19.5952C149.573 19.9446 148.88 20.1193 148.11 20.1193C147.334 20.1193 146.638 19.9432 146.022 19.5909C145.405 19.2386 144.918 18.7287 144.56 18.0611C144.202 17.3935 144.023 16.5852 144.023 15.6364C144.023 14.6847 144.202 13.875 144.56 13.2074C144.918 12.5398 145.405 12.0312 146.022 11.6818C146.638 11.3295 147.334 11.1534 148.11 11.1534C148.88 11.1534 149.573 11.3295 150.189 11.6818C150.809 12.0312 151.297 12.5398 151.655 13.2074C152.016 13.875 152.196 14.6847 152.196 15.6364ZM150.326 15.6364C150.326 15.0199 150.233 14.5 150.049 14.0767C149.867 13.6534 149.61 13.3324 149.277 13.1136C148.945 12.8949 148.556 12.7855 148.11 12.7855C147.664 12.7855 147.275 12.8949 146.942 13.1136C146.61 13.3324 146.351 13.6534 146.167 14.0767C145.985 14.5 145.894 15.0199 145.894 15.6364C145.894 16.2528 145.985 16.7727 146.167 17.196C146.351 17.6193 146.61 17.9403 146.942 18.1591C147.275 18.3778 147.664 18.4872 148.11 18.4872C148.556 18.4872 148.945 18.3778 149.277 18.1591C149.61 17.9403 149.867 17.6193 150.049 17.196C150.233 16.7727 150.326 16.2528 150.326 15.6364ZM152.832 12.794V11.2727H160V12.794H157.328V20H155.504V12.794H152.832ZM161.18 20V11.2727H163.026V14.8736H166.771V11.2727H168.612V20H166.771V16.3949H163.026V20H161.18ZM170.134 20V11.2727H176.014V12.794H171.979V14.8736H175.712V16.3949H171.979V18.4787H176.031V20H170.134ZM177.481 20V11.2727H180.924C181.583 11.2727 182.146 11.3906 182.612 11.6264C183.081 11.8594 183.437 12.1903 183.681 12.6193C183.929 13.0455 184.052 13.5469 184.052 14.1236C184.052 14.7031 183.927 15.2017 183.677 15.6193C183.427 16.0341 183.065 16.3523 182.591 16.5739C182.119 16.7955 181.548 16.9062 180.877 16.9062H178.572V15.4233H180.579C180.931 15.4233 181.224 15.375 181.457 15.2784C181.69 15.1818 181.863 15.0369 181.977 14.8438C182.093 14.6506 182.152 14.4105 182.152 14.1236C182.152 13.8338 182.093 13.5895 181.977 13.3906C181.863 13.1918 181.689 13.0412 181.453 12.9389C181.22 12.8338 180.926 12.7812 180.571 12.7812H179.326V20H177.481ZM182.194 16.0284L184.363 20H182.326L180.204 16.0284H182.194ZM188.134 20V11.2727H191.577C192.239 11.2727 192.803 11.3991 193.268 11.652C193.734 11.902 194.089 12.25 194.334 12.696C194.581 13.1392 194.705 13.6506 194.705 14.2301C194.705 14.8097 194.58 15.321 194.33 15.7642C194.08 16.2074 193.717 16.5526 193.243 16.7997C192.771 17.0469 192.2 17.1705 191.53 17.1705H189.335V15.6918H191.232C191.587 15.6918 191.879 15.6307 192.109 15.5085C192.342 15.3835 192.516 15.2116 192.629 14.9929C192.746 14.7713 192.804 14.517 192.804 14.2301C192.804 13.9403 192.746 13.6875 192.629 13.4716C192.516 13.2528 192.342 13.0838 192.109 12.9645C191.876 12.8423 191.581 12.7812 191.223 12.7812H189.979V20H188.134ZM195.903 20V11.2727H199.346C200.005 11.2727 200.568 11.3906 201.034 11.6264C201.502 11.8594 201.859 12.1903 202.103 12.6193C202.35 13.0455 202.474 13.5469 202.474 14.1236C202.474 14.7031 202.349 15.2017 202.099 15.6193C201.849 16.0341 201.487 16.3523 201.012 16.5739C200.541 16.7955 199.97 16.9062 199.299 16.9062H196.994V15.4233H199.001C199.353 15.4233 199.646 15.375 199.879 15.2784C200.112 15.1818 200.285 15.0369 200.399 14.8438C200.515 14.6506 200.574 14.4105 200.574 14.1236C200.574 13.8338 200.515 13.5895 200.399 13.3906C200.285 13.1918 200.11 13.0412 199.875 12.9389C199.642 12.8338 199.348 12.7812 198.993 12.7812H197.748V20H195.903ZM200.616 16.0284L202.785 20H200.748L198.626 16.0284H200.616ZM211.798 15.6364C211.798 16.5881 211.618 17.3977 211.257 18.0653C210.899 18.733 210.41 19.2429 209.791 19.5952C209.174 19.9446 208.481 20.1193 207.711 20.1193C206.936 20.1193 206.24 19.9432 205.623 19.5909C205.007 19.2386 204.52 18.7287 204.162 18.0611C203.804 17.3935 203.625 16.5852 203.625 15.6364C203.625 14.6847 203.804 13.875 204.162 13.2074C204.52 12.5398 205.007 12.0312 205.623 11.6818C206.24 11.3295 206.936 11.1534 207.711 11.1534C208.481 11.1534 209.174 11.3295 209.791 11.6818C210.41 12.0312 210.899 12.5398 211.257 13.2074C211.618 13.875 211.798 14.6847 211.798 15.6364ZM209.927 15.6364C209.927 15.0199 209.835 14.5 209.65 14.0767C209.468 13.6534 209.211 13.3324 208.879 13.1136C208.547 12.8949 208.157 12.7855 207.711 12.7855C207.265 12.7855 206.876 12.8949 206.544 13.1136C206.211 13.3324 205.953 13.6534 205.768 14.0767C205.586 14.5 205.495 15.0199 205.495 15.6364C205.495 16.2528 205.586 16.7727 205.768 17.196C205.953 17.6193 206.211 17.9403 206.544 18.1591C206.876 18.3778 207.265 18.4872 207.711 18.4872C208.157 18.4872 208.547 18.3778 208.879 18.1591C209.211 17.9403 209.468 17.6193 209.65 17.196C209.835 16.7727 209.927 16.2528 209.927 15.6364ZM216.659 11.2727H218.483V17.358C218.483 17.9205 218.357 18.4091 218.104 18.8239C217.854 19.2386 217.506 19.5582 217.06 19.7827C216.614 20.0071 216.095 20.1193 215.504 20.1193C214.979 20.1193 214.501 20.027 214.072 19.8423C213.646 19.6548 213.308 19.3707 213.058 18.9901C212.808 18.6065 212.685 18.125 212.688 17.5455H214.524C214.53 17.7756 214.577 17.973 214.665 18.1378C214.756 18.2997 214.879 18.4247 215.036 18.5128C215.195 18.598 215.382 18.6406 215.598 18.6406C215.825 18.6406 216.017 18.5923 216.173 18.4957C216.332 18.3963 216.453 18.2514 216.536 18.0611C216.618 17.8707 216.659 17.6364 216.659 17.358V11.2727ZM220.009 20V11.2727H225.889V12.794H221.854V14.8736H225.587V16.3949H221.854V18.4787H225.906V20H220.009ZM235.056 14.3281H233.19C233.156 14.0866 233.086 13.8722 232.981 13.6847C232.876 13.4943 232.741 13.3324 232.576 13.1989C232.412 13.0653 232.221 12.9631 232.005 12.892C231.792 12.821 231.561 12.7855 231.311 12.7855C230.859 12.7855 230.466 12.8977 230.13 13.1222C229.795 13.3437 229.535 13.6676 229.35 14.0938C229.166 14.517 229.074 15.0312 229.074 15.6364C229.074 16.2585 229.166 16.7812 229.35 17.2045C229.538 17.6278 229.799 17.9474 230.135 18.1634C230.47 18.3793 230.858 18.4872 231.298 18.4872C231.545 18.4872 231.774 18.4545 231.984 18.3892C232.197 18.3239 232.386 18.2287 232.551 18.1037C232.716 17.9759 232.852 17.821 232.96 17.6392C233.071 17.4574 233.147 17.25 233.19 17.017L235.056 17.0256C235.008 17.4261 234.887 17.8125 234.694 18.1847C234.504 18.554 234.247 18.8849 233.923 19.1776C233.602 19.4673 233.218 19.6974 232.772 19.8679C232.329 20.0355 231.828 20.1193 231.268 20.1193C230.49 20.1193 229.794 19.9432 229.18 19.5909C228.569 19.2386 228.086 18.7287 227.731 18.0611C227.379 17.3935 227.203 16.5852 227.203 15.6364C227.203 14.6847 227.382 13.875 227.74 13.2074C228.098 12.5398 228.583 12.0312 229.197 11.6818C229.811 11.3295 230.501 11.1534 231.268 11.1534C231.774 11.1534 232.243 11.2244 232.674 11.3665C233.109 11.5085 233.494 11.7159 233.829 11.9886C234.164 12.2585 234.437 12.5895 234.647 12.9815C234.86 13.3736 234.997 13.8224 235.056 14.3281ZM236.047 12.794V11.2727H243.215V12.794H240.543V20H238.719V12.794H236.047ZM249.13 13.7827C249.096 13.4389 248.949 13.1719 248.691 12.9815C248.432 12.7912 248.081 12.696 247.638 12.696C247.337 12.696 247.083 12.7386 246.875 12.8239C246.668 12.9062 246.509 13.0213 246.398 13.169C246.29 13.3168 246.236 13.4844 246.236 13.6719C246.23 13.8281 246.263 13.9645 246.334 14.081C246.408 14.1974 246.509 14.2983 246.637 14.3835C246.765 14.4659 246.912 14.5384 247.08 14.6009C247.248 14.6605 247.426 14.7116 247.617 14.7543L248.401 14.9418C248.782 15.027 249.131 15.1406 249.449 15.2827C249.767 15.4247 250.043 15.5994 250.276 15.8068C250.509 16.0142 250.689 16.2585 250.817 16.5398C250.948 16.821 251.015 17.1435 251.017 17.5071C251.015 18.0412 250.878 18.5043 250.608 18.8963C250.341 19.2855 249.955 19.5881 249.449 19.804C248.946 20.017 248.34 20.1236 247.63 20.1236C246.925 20.1236 246.311 20.0156 245.789 19.7997C245.269 19.5838 244.863 19.2642 244.57 18.8409C244.28 18.4148 244.128 17.8878 244.114 17.2599H245.9C245.919 17.5526 246.003 17.7969 246.151 17.9929C246.301 18.1861 246.502 18.3324 246.752 18.4318C247.005 18.5284 247.29 18.5767 247.608 18.5767C247.921 18.5767 248.192 18.5312 248.422 18.4403C248.655 18.3494 248.836 18.223 248.963 18.0611C249.091 17.8991 249.155 17.7131 249.155 17.5028C249.155 17.3068 249.097 17.142 248.98 17.0085C248.867 16.875 248.699 16.7614 248.478 16.6676C248.259 16.5739 247.99 16.4886 247.672 16.4119L246.722 16.1733C245.986 15.9943 245.405 15.7145 244.979 15.3338C244.553 14.9531 244.341 14.4403 244.344 13.7955C244.341 13.267 244.482 12.8054 244.766 12.4105C245.053 12.0156 245.446 11.7074 245.946 11.4858C246.446 11.2642 247.015 11.1534 247.651 11.1534C248.299 11.1534 248.864 11.2642 249.347 11.4858C249.833 11.7074 250.211 12.0156 250.48 12.4105C250.75 12.8054 250.89 13.2628 250.898 13.7827H249.13Z" fill="white"/>
<path d="M23.3333 14.3333C23.1565 14.3333 22.987 14.4036 22.8619 14.5286C22.7369 14.6536 22.6667 14.8232 22.6667 15V19C22.6667 19.1768 22.5964 19.3464 22.4714 19.4714C22.3464 19.5964 22.1768 19.6667 22 19.6667H14C13.8232 19.6667 13.6536 19.5964 13.5286 19.4714C13.4036 19.3464 13.3333 19.1768 13.3333 19V11C13.3333 10.8232 13.4036 10.6536 13.5286 10.5286C13.6536 10.4036 13.8232 10.3333 14 10.3333H18C18.1768 10.3333 18.3464 10.2631 18.4714 10.1381C18.5964 10.013 18.6667 9.84348 18.6667 9.66667C18.6667 9.48986 18.5964 9.32029 18.4714 9.19526C18.3464 9.07024 18.1768 9 18 9H14C13.4696 9 12.9609 9.21071 12.5858 9.58579C12.2107 9.96086 12 10.4696 12 11V19C12 19.5304 12.2107 20.0391 12.5858 20.4142C12.9609 20.7893 13.4696 21 14 21H22C22.5304 21 23.0391 20.7893 23.4142 20.4142C23.7893 20.0391 24 19.5304 24 19V15C24 14.8232 23.9298 14.6536 23.8047 14.5286C23.6797 14.4036 23.5101 14.3333 23.3333 14.3333Z" fill="white"/>
<path d="M21.3372 9.33333H22.3905L18.1972 13.52C18.1347 13.582 18.0851 13.6557 18.0513 13.7369C18.0174 13.8182 18 13.9053 18 13.9933C18 14.0813 18.0174 14.1685 18.0513 14.2497C18.0851 14.331 18.1347 14.4047 18.1972 14.4667C18.2592 14.5292 18.3329 14.5787 18.4141 14.6126C18.4954 14.6464 18.5825 14.6639 18.6705 14.6639C18.7585 14.6639 18.8457 14.6464 18.9269 14.6126C19.0082 14.5787 19.0819 14.5292 19.1439 14.4667L23.3372 10.28V11.3333C23.3372 11.5101 23.4074 11.6797 23.5325 11.8047C23.6575 11.9298 23.8271 12 24.0039 12C24.1807 12 24.3502 11.9298 24.4753 11.8047C24.6003 11.6797 24.6705 11.5101 24.6705 11.3333V8.66667C24.6705 8.48986 24.6003 8.32029 24.4753 8.19526C24.3502 8.07024 24.1807 8 24.0039 8H21.3372C21.1604 8 20.9908 8.07024 20.8658 8.19526C20.7408 8.32029 20.6705 8.48986 20.6705 8.66667C20.6705 8.84348 20.7408 9.01305 20.8658 9.13807C20.9908 9.2631 21.1604 9.33333 21.3372 9.33333Z" fill="white"/>
</svg>
