<svg width="125" height="36" viewBox="0 0 125 36" fill="none" xmlns="http://www.w3.org/2000/svg">
<rect width="125" height="36" rx="4" fill="#5765EC"/>
<path d="M28.6667 17.1667C28.4457 17.1667 28.2337 17.2545 28.0774 17.4107C27.9211 17.567 27.8333 17.779 27.8333 18V23C27.8333 23.221 27.7455 23.433 27.5893 23.5893C27.433 23.7455 27.221 23.8333 27 23.8333H17C16.779 23.8333 16.567 23.7455 16.4107 23.5893C16.2545 23.433 16.1667 23.221 16.1667 23V13C16.1667 12.779 16.2545 12.567 16.4107 12.4107C16.567 12.2545 16.779 12.1667 17 12.1667H22C22.221 12.1667 22.433 12.0789 22.5893 11.9226C22.7455 11.7663 22.8333 11.5543 22.8333 11.3333C22.8333 11.1123 22.7455 10.9004 22.5893 10.7441C22.433 10.5878 22.221 10.5 22 10.5H17C16.337 10.5 15.7011 10.7634 15.2322 11.2322C14.7634 11.7011 14.5 12.337 14.5 13V23C14.5 23.663 14.7634 24.2989 15.2322 24.7678C15.7011 25.2366 16.337 25.5 17 25.5H27C27.663 25.5 28.2989 25.2366 28.7678 24.7678C29.2366 24.2989 29.5 23.663 29.5 23V18C29.5 17.779 29.4122 17.567 29.2559 17.4107C29.0996 17.2545 28.8877 17.1667 28.6667 17.1667Z" fill="white"/>
<path d="M26.1715 10.9167H27.4882L22.2465 16.15C22.1684 16.2275 22.1064 16.3196 22.0641 16.4212C22.0218 16.5227 22 16.6317 22 16.7417C22 16.8517 22.0218 16.9606 22.0641 17.0621C22.1064 17.1637 22.1684 17.2559 22.2465 17.3333C22.324 17.4114 22.4161 17.4734 22.5177 17.5157C22.6192 17.5581 22.7282 17.5798 22.8382 17.5798C22.9482 17.5798 23.0571 17.5581 23.1586 17.5157C23.2602 17.4734 23.3524 17.4114 23.4298 17.3333L28.6715 12.1V13.4167C28.6715 13.6377 28.7593 13.8496 28.9156 14.0059C29.0719 14.1622 29.2838 14.25 29.5048 14.25C29.7258 14.25 29.9378 14.1622 30.0941 14.0059C30.2504 13.8496 30.3382 13.6377 30.3382 13.4167V10.0833C30.3382 9.86232 30.2504 9.65036 30.0941 9.49408C29.9378 9.3378 29.7258 9.25 29.5048 9.25H26.1715C25.9505 9.25 25.7385 9.3378 25.5822 9.49408C25.426 9.65036 25.3382 9.86232 25.3382 10.0833C25.3382 10.3043 25.426 10.5163 25.5822 10.6726C25.7385 10.8289 25.9505 10.9167 26.1715 10.9167Z" fill="white"/>
<path d="M43.6307 23.5L40.3011 11.8636H42.9886L44.9148 19.9489H45.0114L47.1364 11.8636H49.4375L51.5568 19.9659H51.6591L53.5852 11.8636H56.2727L52.9432 23.5H50.5455L48.3295 15.892H48.2386L46.0284 23.5H43.6307ZM57.5895 23.5V11.8636H65.4304V13.892H60.0497V16.6648H65.027V18.6932H60.0497V21.4716H65.4531V23.5H57.5895ZM67.3864 23.5V11.8636H72.0455C72.9015 11.8636 73.6155 11.9905 74.1875 12.2443C74.7595 12.4981 75.1894 12.8504 75.4773 13.3011C75.7652 13.7481 75.9091 14.2633 75.9091 14.8466C75.9091 15.3011 75.8182 15.7008 75.6364 16.0455C75.4545 16.3864 75.2045 16.6667 74.8864 16.8864C74.572 17.1023 74.2121 17.2557 73.8068 17.3466V17.4602C74.25 17.4792 74.6648 17.6042 75.0511 17.8352C75.4413 18.0663 75.7576 18.3902 76 18.8068C76.2424 19.2197 76.3636 19.7121 76.3636 20.2841C76.3636 20.9015 76.2102 21.4527 75.9034 21.9375C75.6004 22.4186 75.1515 22.7992 74.5568 23.0795C73.9621 23.3598 73.2292 23.5 72.358 23.5H67.3864ZM69.8466 21.4886H71.8523C72.5379 21.4886 73.0379 21.358 73.3523 21.0966C73.6667 20.8314 73.8239 20.4792 73.8239 20.0398C73.8239 19.7178 73.7462 19.4337 73.5909 19.1875C73.4356 18.9413 73.214 18.7481 72.9261 18.608C72.642 18.4678 72.303 18.3977 71.9091 18.3977H69.8466V21.4886ZM69.8466 16.733H71.6705C72.0076 16.733 72.3068 16.6742 72.5682 16.5568C72.8333 16.4356 73.0417 16.2652 73.1932 16.0455C73.3485 15.8258 73.4261 15.5625 73.4261 15.2557C73.4261 14.8352 73.2765 14.4962 72.9773 14.2386C72.6818 13.9811 72.2614 13.8523 71.7159 13.8523H69.8466V16.733ZM84.277 15.2102C84.2315 14.7519 84.0365 14.3958 83.6918 14.142C83.3471 13.8883 82.8793 13.7614 82.2884 13.7614C81.8868 13.7614 81.5478 13.8182 81.2713 13.9318C80.9948 14.0417 80.7827 14.1951 80.6349 14.392C80.491 14.589 80.419 14.8125 80.419 15.0625C80.4115 15.2708 80.455 15.4527 80.5497 15.608C80.6482 15.7633 80.7827 15.8977 80.9531 16.0114C81.1236 16.1212 81.3205 16.2178 81.544 16.3011C81.7675 16.3807 82.0062 16.4489 82.2599 16.5057L83.3054 16.7557C83.813 16.8693 84.2789 17.0208 84.7031 17.2102C85.1274 17.3996 85.4948 17.6326 85.8054 17.9091C86.116 18.1856 86.3565 18.5114 86.527 18.8864C86.7012 19.2614 86.7902 19.6913 86.794 20.1761C86.7902 20.8883 86.6084 21.5057 86.2486 22.0284C85.8925 22.5473 85.3774 22.9508 84.7031 23.2386C84.0327 23.5227 83.224 23.6648 82.277 23.6648C81.3376 23.6648 80.5194 23.5208 79.8224 23.233C79.1293 22.9451 78.5876 22.5189 78.1974 21.9545C77.8111 21.3864 77.6084 20.6837 77.5895 19.8466H79.9702C79.9967 20.2367 80.1084 20.5625 80.3054 20.8239C80.5062 21.0814 80.7732 21.2765 81.1065 21.4091C81.4437 21.5379 81.8243 21.6023 82.2486 21.6023C82.6652 21.6023 83.027 21.5417 83.3338 21.4205C83.6444 21.2992 83.8849 21.1307 84.0554 20.9148C84.2259 20.6989 84.3111 20.4508 84.3111 20.1705C84.3111 19.9091 84.2334 19.6894 84.0781 19.5114C83.9266 19.3333 83.7031 19.1818 83.4077 19.0568C83.116 18.9318 82.758 18.8182 82.3338 18.7159L81.0668 18.3977C80.0857 18.1591 79.3111 17.786 78.7429 17.2784C78.1747 16.7708 77.8925 16.0871 77.8963 15.2273C77.8925 14.5227 78.08 13.9072 78.4588 13.3807C78.8414 12.8542 79.366 12.4432 80.0327 12.1477C80.6993 11.8523 81.4569 11.7045 82.3054 11.7045C83.169 11.7045 83.9228 11.8523 84.5668 12.1477C85.2145 12.4432 85.7183 12.8542 86.0781 13.3807C86.438 13.9072 86.6236 14.517 86.6349 15.2102H84.277ZM90.9091 11.8636V23.5H88.4489V11.8636H90.9091ZM92.4901 13.892V11.8636H102.047V13.892H98.4844V23.5H96.0526V13.892H92.4901ZM103.621 23.5V11.8636H111.462V13.892H106.081V16.6648H111.058V18.6932H106.081V21.4716H111.484V23.5H103.621Z" fill="white"/>
</svg>
